<svg width="541" height="286" viewBox="0 0 541 286" fill="none" xmlns="http://www.w3.org/2000/svg">
<g clip-path="url(#clip0)">
<path d="M541 50.962V111.159L539.981 109.643L466.884 1.01761L466.196 0H506.705L507.388 1.01761L539.981 49.4458L541 50.962Z" fill="#FFC107"/>
<path d="M285.35 -0.000210233C247.87 -0.0480738 210.75 7.30184 176.123 21.6272C141.496 35.9525 110.045 56.9709 83.5763 83.4746C79.0373 88.008 74.6732 92.667 70.4841 97.4515C61.8795 107.248 53.9629 117.627 46.7907 128.514C44.7224 131.653 42.7187 134.833 40.7794 138.054C33.8158 149.61 27.6822 161.644 22.4248 174.068C21.8492 175.421 21.2871 176.779 20.7386 178.143C17.6871 185.658 14.9719 193.272 12.5929 200.983C6.48277 220.759 2.57059 241.145 0.927033 261.776C0.310628 269.464 0.00157602 277.206 -0.00012207 285.003V285.511H541V-0.000210233H285.35ZM539.981 284.494H1.01876C1.02895 277.574 1.28706 270.717 1.79309 263.923C3.32228 243.112 7.15968 222.536 13.2348 202.571C15.6087 194.766 18.3053 187.108 21.3245 179.598C26.9109 165.688 33.597 152.243 41.3194 139.392C43.2502 136.161 45.2522 132.973 47.3256 129.827C54.4819 118.904 62.3832 108.486 70.9731 98.6471C123.138 38.8624 199.904 1.0174 285.35 1.0174H539.981V284.494Z" fill="#3F3D56"/>
<path d="M252.468 244.666C259.338 265.319 256.925 284.71 256.925 284.71C256.925 284.71 243.373 270.617 236.502 249.965C229.632 229.312 232.045 209.921 232.045 209.921C232.045 209.921 245.597 224.014 252.468 244.666Z" fill="#FFC107"/>
<path d="M261.383 244.666C254.512 265.319 256.925 284.71 256.925 284.71C256.925 284.71 270.478 270.617 277.348 249.965C284.219 229.312 281.806 209.921 281.806 209.921C281.806 209.921 268.254 224.014 261.383 244.666Z" fill="#FFC107"/>
<path d="M264.15 244.89C264.611 266.647 256.574 284.463 256.574 284.463C256.574 284.463 247.791 267.003 247.33 245.245C246.87 223.487 254.906 205.671 254.906 205.671C254.906 205.671 263.69 223.132 264.15 244.89Z" fill="#3F3D56"/>
<path d="M256.57 285.774C267.301 285.774 276 285.297 276 284.709C276 284.12 267.301 283.644 256.57 283.644C245.839 283.644 237.139 284.12 237.139 284.709C237.139 285.297 245.839 285.774 256.57 285.774Z" fill="#3F3D56"/>
<path d="M71.3247 285.04C77.4134 285.04 82.3493 280.11 82.3493 274.029C82.3493 267.947 77.4134 263.017 71.3247 263.017C65.2359 263.017 60.3 267.947 60.3 274.029C60.3 280.11 65.2359 285.04 71.3247 285.04Z" fill="#F2F2F2"/>
<path d="M73.3471 256.214C69.3946 256.22 65.6057 257.791 62.8113 260.583C60.017 263.375 58.4454 267.16 58.4413 271.107C58.4413 271.189 58.4413 271.27 58.4464 271.351C58.495 274.1 59.3027 276.782 60.7805 279.101C62.2584 281.42 64.3488 283.286 66.8213 284.494C67.6964 284.925 68.613 285.266 69.557 285.512C72.0434 286.163 74.6559 286.163 77.1423 285.512C78.0863 285.266 79.0028 284.925 79.8779 284.494C82.9094 283.019 85.3507 280.561 86.8034 277.522C88.2561 274.482 88.6344 271.041 87.8765 267.759C87.1186 264.477 85.2693 261.549 82.6305 259.452C79.9916 257.356 76.7191 256.214 73.3471 256.214ZM76.9946 284.494C75.8063 284.82 74.5794 284.984 73.3471 284.982C73.1026 284.982 72.858 284.977 72.6186 284.962H72.6135C71.6296 284.913 70.6541 284.756 69.7047 284.494C67.6975 283.945 65.839 282.954 64.2654 281.593C62.6919 280.233 61.4434 278.538 60.6114 276.633V276.628C59.4848 274.033 59.1793 271.156 59.7359 268.383C60.2924 265.61 61.6845 263.073 63.7254 261.113C65.7663 259.152 68.3585 257.862 71.1545 257.414C73.9505 256.966 76.8167 257.383 79.3688 258.609C81.9209 259.834 84.037 261.809 85.4333 264.27C86.8297 266.73 87.4396 269.558 87.1812 272.375C86.9229 275.191 85.8087 277.861 83.988 280.028C82.1673 282.194 79.7271 283.752 76.9946 284.494Z" fill="#3F3D56"/>
<path d="M198.671 199.21H116.144V213.846H198.671V199.21Z" fill="#F2F2F2"/>
<path d="M455.931 62.3408H373.404V76.9773H455.931V62.3408Z" fill="#F2F2F2"/>
<path d="M455.931 94.3956H373.404V109.032H455.931V94.3956Z" fill="#F2F2F2"/>
<path d="M455.931 125.433H373.404V140.069H455.931V125.433Z" fill="#F2F2F2"/>
<path d="M455.931 156.47H373.404V171.106H455.931V156.47Z" fill="#F2F2F2"/>
<path d="M455.931 188.525H373.404V203.161H455.931V188.525Z" fill="#F2F2F2"/>
<path d="M455.931 220.58H373.404V235.216H455.931V220.58Z" fill="#F2F2F2"/>
<path d="M115.635 194.003V214.355H225.67V194.003H115.635ZM224.652 213.337H116.653V195.02H224.652V213.337Z" fill="#3F3D56"/>
<path d="M299.028 84.6094C301.841 84.6094 304.122 82.3314 304.122 79.5213C304.122 76.7113 301.841 74.4333 299.028 74.4333C296.214 74.4333 293.934 76.7113 293.934 79.5213C293.934 82.3314 296.214 84.6094 299.028 84.6094Z" fill="#3F3D56"/>
<path d="M299.028 116.155C301.841 116.155 304.122 113.877 304.122 111.067C304.122 108.257 301.841 105.979 299.028 105.979C296.214 105.979 293.934 108.257 293.934 111.067C293.934 113.877 296.214 116.155 299.028 116.155Z" fill="#3F3D56"/>
<path d="M299.028 147.701C301.841 147.701 304.122 145.423 304.122 142.613C304.122 139.803 301.841 137.525 299.028 137.525C296.214 137.525 293.934 139.803 293.934 142.613C293.934 145.423 296.214 147.701 299.028 147.701Z" fill="#3F3D56"/>
<path d="M299.028 179.247C301.841 179.247 304.122 176.969 304.122 174.159C304.122 171.349 301.841 169.071 299.028 169.071C296.214 169.071 293.934 171.349 293.934 174.159C293.934 176.969 296.214 179.247 299.028 179.247Z" fill="#3F3D56"/>
<path d="M299.028 210.793C301.841 210.793 304.122 208.515 304.122 205.705C304.122 202.895 301.841 200.617 299.028 200.617C296.214 200.617 293.934 202.895 293.934 205.705C293.934 208.515 296.214 210.793 299.028 210.793Z" fill="#3F3D56"/>
<path d="M299.028 242.339C301.841 242.339 304.122 240.061 304.122 237.251C304.122 234.441 301.841 232.163 299.028 232.163C296.214 232.163 293.934 234.441 293.934 237.251C293.934 240.061 296.214 242.339 299.028 242.339Z" fill="#3F3D56"/>
<path d="M484.459 79.0125H344.876V80.0302H484.459V79.0125Z" fill="#3F3D56"/>
<path d="M484.459 110.559H344.876V111.576H484.459V110.559Z" fill="#3F3D56"/>
<path d="M484.459 142.105H344.876V143.122H484.459V142.105Z" fill="#3F3D56"/>
<path d="M484.459 173.65H344.876V174.668H484.459V173.65Z" fill="#3F3D56"/>
<path d="M484.459 205.196H344.876V206.214H484.459V205.196Z" fill="#3F3D56"/>
<path d="M484.459 236.742H344.876V237.76H484.459V236.742Z" fill="#3F3D56"/>
<path d="M509.604 266.215L496.213 255.243L507.199 241.868L520.59 252.841L509.604 266.215ZM497.647 255.102L509.463 264.783L519.156 252.982L507.341 243.3L497.647 255.102Z" fill="#3F3D56"/>
<path d="M315.593 27.0014L302.99 16.6746L292.651 29.2624L305.254 39.5892L315.593 27.0014Z" fill="#FFC107"/>
<path d="M238.406 111.067C238.429 125.419 233.86 139.403 225.365 150.978C224.397 152.301 223.383 153.593 222.318 154.84C219.311 158.38 215.948 161.602 212.283 164.456C211.916 164.741 211.544 165.026 211.167 165.306C209.792 166.334 208.377 167.309 206.924 168.232C206.481 168.512 206.037 168.786 205.589 169.051C204.575 169.667 203.543 170.253 202.492 170.811C201.977 171.086 201.458 171.356 200.938 171.615C190.26 176.936 178.366 179.348 166.456 178.608C154.546 177.867 143.042 174 133.108 167.397C132.578 167.051 132.058 166.695 131.544 166.329C130.576 165.647 129.623 164.935 128.696 164.202C127.84 163.53 127.005 162.833 126.185 162.121C121.867 158.371 118.041 154.09 114.799 149.38C114.167 148.459 113.556 147.523 112.965 146.572C107.47 137.665 104.117 127.607 103.171 117.188C102.224 106.768 103.708 96.2716 107.508 86.5221C111.308 76.7726 117.319 68.0357 125.069 60.9977C132.82 53.9598 142.098 48.8124 152.176 45.9599C162.254 43.1075 172.857 42.6276 183.152 44.5581C193.447 46.4885 203.154 50.7767 211.51 57.0858C219.865 63.3948 226.643 71.553 231.31 80.9193C235.977 90.2857 238.406 100.605 238.406 111.067Z" fill="#3F3D56"/>
<path d="M168.101 107.728C178.295 107.728 186.56 99.4743 186.56 89.2922C186.56 79.1102 178.295 70.856 168.101 70.856C157.907 70.856 149.642 79.1102 149.642 89.2922C149.642 99.4743 157.907 107.728 168.101 107.728Z" fill="#A0616A"/>
<path d="M155.411 98.1262C155.411 98.1262 161.564 111.953 153.103 117.331C144.643 122.708 166.947 144.985 166.947 144.985L191.559 118.867C191.559 118.867 178.484 110.417 180.791 96.5899L155.411 98.1262Z" fill="#A0616A"/>
<path d="M212.283 164.456C211.916 164.741 211.544 165.026 211.167 165.306C209.792 166.334 208.377 167.309 206.924 168.232C206.481 168.512 206.037 168.786 205.589 169.051L205.401 168.028L207.173 167.107L212.283 164.456Z" fill="#A0616A"/>
<path d="M205.589 169.051C206.037 168.786 206.48 168.512 206.924 168.232L206.939 168.028L207.173 167.107L216.939 128.855L187.336 115.25L170.026 125.782L154.519 116.232C154.519 116.232 145.41 116.562 143.103 118.867C141.294 120.674 132.425 124.831 128.655 126.55C127.606 127.029 126.954 127.319 126.954 127.319C126.954 127.319 127.535 144.75 128.696 164.202C129.623 164.935 130.576 165.647 131.544 166.329C132.058 166.695 132.578 167.051 133.108 167.397C143.042 174 154.546 177.867 166.456 178.608C178.365 179.348 190.26 176.936 200.938 171.615L205.589 169.051Z" fill="#FFC107"/>
<path d="M133.108 126.55V167.397C132.578 167.051 132.058 166.695 131.544 166.329C130.576 165.647 129.623 164.935 128.696 164.202C127.84 163.53 127.005 162.833 126.185 162.121C121.867 158.371 118.041 154.09 114.799 149.38C114.167 148.46 113.556 147.523 112.965 146.572C113.464 144.933 114.025 143.124 114.646 141.143C118.492 128.855 126.954 126.55 126.954 126.55H133.108Z" fill="#FFC107"/>
<path d="M205.589 169.051C206.037 168.786 206.48 168.512 206.924 168.232C208.375 167.311 209.79 166.336 211.167 165.306C211.544 165.026 211.916 164.741 212.283 164.456C215.948 161.602 219.311 158.38 222.318 154.84C223.383 153.593 224.397 152.301 225.365 150.978C222.232 141.199 216.939 128.855 216.939 128.855L206.17 128.087C206.17 128.087 201.799 163.032 200.938 171.615L205.589 169.051Z" fill="#FFC107"/>
<path d="M156.784 67.9533C155.86 68.7383 154.896 69.4748 153.896 70.1598C152.635 71.2048 151.47 72.3606 150.415 73.6132L149.225 74.9441C148.212 76.0767 147.138 77.3693 147.18 78.8873C147.196 79.4505 147.37 79.9971 147.437 80.5565C147.707 82.7755 146.349 85.2145 147.467 87.151C147.79 87.7108 148.29 88.1486 148.646 88.688C149.099 89.3795 149.3 90.2058 149.215 91.0279C150.416 91.077 151.401 90.0019 151.778 88.8616C152.155 87.7212 152.104 86.4894 152.287 85.3026C152.471 84.1159 152.986 82.8593 154.066 82.331C156.369 81.2037 159.015 84.1346 161.473 83.4042C163.19 82.8942 164.095 80.7686 165.851 80.4122C167.107 80.1571 168.316 80.9026 169.484 81.431C170.652 81.9594 172.226 82.204 173.051 81.2245C173.598 80.5761 173.656 79.5369 174.381 79.0962C175.25 78.5681 176.339 79.3034 176.997 80.0782C177.654 80.8531 178.381 81.8006 179.398 81.7724C180.747 81.735 181.78 79.9407 183.06 80.3664C184.506 80.8468 183.841 83.1566 184.718 84.4004C185.459 85.452 187.012 85.3901 188.287 85.2164C188.503 85.2381 188.72 85.205 188.919 85.1202C189.117 85.0353 189.291 84.9014 189.424 84.7311C189.557 84.5607 189.645 84.3595 189.679 84.1462C189.713 83.9329 189.692 83.7144 189.618 83.5113L189.085 76.453C189.083 75.9666 188.977 75.4862 188.773 75.0443C188.402 74.373 187.634 74.033 187.111 73.4711C186.013 72.2897 186.065 70.2186 184.699 69.3595C183.99 68.9135 183.062 68.9269 182.358 68.4729C181.455 67.8908 181.164 66.7249 180.531 65.8569C179.627 64.6161 178.045 64.0408 176.517 63.8829C174.988 63.7251 173.445 63.9155 171.909 63.8654C168.786 63.7637 165.664 62.8858 162.525 63.3997C159.787 63.8481 158.638 66.1684 156.784 67.9533Z" fill="#2F2E41"/>
<path d="M520.642 64.4638C521.819 64.4638 522.774 63.5102 522.774 62.3339C522.774 61.1575 521.819 60.2039 520.642 60.2039C519.464 60.2039 518.509 61.1575 518.509 62.3339C518.509 63.5102 519.464 64.4638 520.642 64.4638Z" fill="#3F3D56"/>
<path d="M505.868 38.5147C507.046 38.5147 508.001 37.5611 508.001 36.3847C508.001 35.2084 507.046 34.2548 505.868 34.2548C504.691 34.2548 503.736 35.2084 503.736 36.3847C503.736 37.5611 504.691 38.5147 505.868 38.5147Z" fill="#3F3D56"/>
<path d="M499.755 10.5304C500.933 10.5304 501.888 9.57676 501.888 8.4004C501.888 7.22404 500.933 6.27042 499.755 6.27042C498.577 6.27042 497.623 7.22404 497.623 8.4004C497.623 9.57676 498.577 10.5304 499.755 10.5304Z" fill="#3F3D56"/>
</g>
<defs>
<clipPath id="clip0">
<rect width="541" height="286" fill="white"/>
</clipPath>
</defs>
</svg>
