<svg width="543" height="382" viewBox="0 0 543 382" fill="none" xmlns="http://www.w3.org/2000/svg">
<g clip-path="url(#clip0)">
<g opacity="0.5">
<path opacity="0.5" d="M514.361 95.1225H439.998V70.2801C439.998 63.3791 436.858 56.7607 431.269 51.881C425.68 47.0012 418.099 44.2598 410.195 44.2598H69.7111C62.5402 44.2598 55.663 46.7469 50.5923 51.1738C45.5217 55.6008 42.6731 61.605 42.6731 67.8657V95.1371H31.4772C23.1367 95.1345 15.1363 98.023 9.23398 103.168C3.33167 108.313 0.0103861 115.293 0 122.575V245.736C0.00604719 252.662 3.00861 259.33 8.40641 264.405C13.8042 269.48 21.1988 272.587 29.1093 273.105V300.963H60.8944V273.188H100.92V301.197H132.705V273.188H418.759V301.197H450.544V273.188H477.034V300.938H508.853V273.188H514.579C518.311 273.189 522.007 272.548 525.455 271.301C528.903 270.055 532.036 268.227 534.675 265.924C537.315 263.62 539.408 260.885 540.836 257.875C542.265 254.865 543 251.638 543 248.38V120.131C543.001 116.847 542.26 113.595 540.822 110.561C539.383 107.527 537.273 104.77 534.614 102.448C531.954 100.125 528.797 98.2831 525.322 97.0262C521.847 95.7694 518.122 95.1225 514.361 95.1225ZM434.4 203.812V224.622H315.903C317.186 222.616 317.859 220.357 317.857 218.059V203.812H434.4Z" fill="url(#paint0_linear)"/>
</g>
<path d="M68.7372 262.778H38.1333V296.178H68.7372V262.778Z" fill="#FFC107"/>
<path d="M443.939 263.027H413.335V296.427H443.939V263.027Z" fill="#FFC107"/>
<path d="M500.047 262.778H469.443V296.178H500.047V262.778Z" fill="#FFC107"/>
<path d="M137.883 263.027H107.279V296.427H137.883V263.027Z" fill="#FFC107"/>
<path opacity="0.3" d="M68.7372 262.778H38.1333V296.178H68.7372V262.778Z" fill="black"/>
<path opacity="0.3" d="M443.939 263.027H413.335V296.427H443.939V263.027Z" fill="black"/>
<path opacity="0.3" d="M500.047 262.778H469.443V296.178H500.047V262.778Z" fill="black"/>
<path opacity="0.3" d="M137.883 263.027H107.279V296.427H137.883V263.027Z" fill="black"/>
<path d="M428.354 98.0011H505.349C512.662 98.0011 519.676 100.538 524.847 105.053C530.019 109.567 532.924 115.691 532.924 122.076V245.575C532.924 251.909 530.042 257.984 524.911 262.463C519.781 266.943 512.822 269.459 505.567 269.459H428.354V98.0011Z" fill="#FFC107"/>
<path opacity="0.3" d="M428.354 98.0011H505.349C512.662 98.0011 519.676 100.538 524.847 105.053C530.019 109.567 532.924 115.691 532.924 122.076V245.575C532.924 251.909 530.042 257.984 524.911 262.463C519.781 266.943 512.822 269.459 505.567 269.459H428.354V98.0011Z" fill="black"/>
<path d="M77.201 49.0152H224.6V202.659H51.165V71.7414C51.1665 65.7136 53.9103 59.9331 58.7928 55.6713C63.6753 51.4094 70.2968 49.0152 77.201 49.0152Z" fill="#FFC107"/>
<path opacity="0.3" d="M78.0407 49.0152H224.6V202.659H51.165V72.4745C51.165 69.3934 51.8602 66.3424 53.2109 63.4959C54.5616 60.6494 56.5414 58.063 59.0371 55.8845C61.5328 53.7061 64.4956 51.9782 67.7563 50.7995C71.017 49.6209 74.5116 49.0146 78.0407 49.0152Z" fill="black"/>
<path d="M117.109 49.0152H260.024V202.659H86.5889V75.6562C86.5889 68.5905 89.8038 61.8143 95.5263 56.8182C101.249 51.822 109.01 49.0152 117.103 49.0152H117.109Z" fill="#FFC107"/>
<path d="M259.185 49.0152H405.039C412.651 49.0152 419.951 51.6552 425.333 56.3544C430.716 61.0535 433.739 67.427 433.739 74.0727V202.659H259.185V49.0152Z" fill="#FFC107"/>
<path d="M476.815 98.0011H505.365C512.675 98.005 519.685 100.543 524.853 105.058C530.021 109.572 532.924 115.694 532.924 122.076V245.575C532.924 251.909 530.041 257.984 524.911 262.463C519.78 266.943 512.822 269.459 505.566 269.459H476.815V98.0011Z" fill="#FFC107"/>
<path d="M476.81 222.697H124.845V269.459H476.81V222.697Z" fill="#FFC107"/>
<path d="M205.719 104.029L167.261 113.816C150.328 118.125 140.602 133.603 145.537 148.386L158.277 186.547C163.213 201.331 180.941 209.822 197.874 205.513L236.333 195.727C253.266 191.418 262.992 175.94 258.057 161.156L245.317 122.995C240.381 108.211 222.653 99.7199 205.719 104.029Z" fill="url(#paint1_linear)"/>
<path d="M203.6 108.587L167.738 117.714C151.947 121.732 142.878 136.165 147.48 149.951L159.36 185.536C163.963 199.322 180.495 207.241 196.285 203.222L232.148 194.096C247.938 190.078 257.008 175.645 252.405 161.859L240.525 126.274C235.923 112.488 219.391 104.569 203.6 108.587Z" fill="#F55F44"/>
<path opacity="0.1" d="M203.6 108.587L167.738 117.714C151.947 121.732 142.878 136.165 147.48 149.951L159.36 185.536C163.963 199.322 180.495 207.241 196.285 203.222L232.148 194.096C247.938 190.078 257.008 175.645 252.405 161.859L240.525 126.274C235.923 112.488 219.391 104.569 203.6 108.587Z" fill="black"/>
<path d="M205.451 107.452L169.588 116.578C153.798 120.596 144.728 135.03 149.331 148.816L161.211 184.401C165.813 198.187 182.345 206.105 198.136 202.087L233.998 192.961C249.789 188.943 258.859 174.509 254.256 160.723L242.376 125.138C237.773 111.352 221.242 103.434 205.451 107.452Z" fill="#F55F44"/>
<path d="M197.781 138.174C201.238 136.051 202.069 131.884 199.638 128.866C197.206 125.848 192.433 125.122 188.976 127.244C185.519 129.367 184.688 133.535 187.119 136.553C189.55 139.571 194.324 140.297 197.781 138.174Z" fill="url(#paint2_linear)"/>
<path d="M234.392 156.525C237.849 154.402 238.68 150.235 236.249 147.217C233.818 144.199 229.044 143.473 225.587 145.595C222.131 147.718 221.299 151.886 223.73 154.904C226.162 157.922 230.935 158.648 234.392 156.525Z" fill="url(#paint3_linear)"/>
<path d="M177.604 175.056C181.061 172.933 181.893 168.766 179.461 165.748C177.03 162.729 172.257 162.004 168.8 164.126C165.343 166.249 164.512 170.416 166.943 173.435C169.374 176.453 174.148 177.178 177.604 175.056Z" fill="url(#paint4_linear)"/>
<path d="M212.126 194.692C215.583 192.569 216.414 188.402 213.983 185.383C211.552 182.365 206.778 181.64 203.321 183.762C199.864 185.885 199.033 190.052 201.464 193.07C203.896 196.089 208.669 196.814 212.126 194.692Z" fill="url(#paint5_linear)"/>
<path d="M196.312 136.351C198.616 134.936 199.17 132.159 197.549 130.148C195.929 128.136 192.748 127.653 190.444 129.067C188.141 130.482 187.586 133.259 189.207 135.271C190.827 137.282 194.008 137.766 196.312 136.351Z" fill="#F99F8F"/>
<path d="M232.924 154.702C235.227 153.287 235.782 150.51 234.161 148.499C232.541 146.487 229.36 146.004 227.056 147.418C224.752 148.833 224.198 151.61 225.819 153.622C227.439 155.633 230.62 156.117 232.924 154.702Z" fill="#F99F8F"/>
<path d="M176.136 173.233C178.44 171.818 178.994 169.041 177.374 167.03C175.753 165.018 172.572 164.535 170.268 165.949C167.965 167.364 167.411 170.141 169.031 172.152C170.651 174.164 173.832 174.648 176.136 173.233Z" fill="#F99F8F"/>
<path d="M210.658 192.869C212.961 191.454 213.515 188.677 211.895 186.666C210.275 184.654 207.094 184.171 204.79 185.585C202.486 187 201.932 189.777 203.552 191.788C205.173 193.8 208.354 194.283 210.658 192.869Z" fill="#F99F8F"/>
<path d="M40.3778 98.0011H152.896V269.459H40.3778C32.3423 269.459 24.6358 266.672 18.9533 261.712C13.2708 256.752 10.0777 250.024 10.0762 243.009V124.456C10.0762 117.44 13.2687 110.711 18.9513 105.75C24.634 100.788 32.3413 98.0011 40.3778 98.0011Z" fill="#FFC107"/>
<path opacity="0.3" d="M40.5905 98.0011H124.666C128.376 98.0011 132.049 98.6394 135.477 99.8795C138.904 101.12 142.017 102.937 144.64 105.228C147.262 107.52 149.341 110.239 150.759 113.233C152.177 116.226 152.905 119.433 152.902 122.672V244.807C152.902 251.345 149.927 257.616 144.632 262.239C139.337 266.862 132.155 269.459 124.666 269.459H40.5905C32.4976 269.459 24.7362 266.652 19.0136 261.656C13.2911 256.66 10.0762 249.884 10.0762 242.818V124.627C10.0806 117.564 13.2975 110.792 19.0196 105.799C24.7416 100.806 32.5005 98.0011 40.5905 98.0011Z" fill="black"/>
<path opacity="0.1" d="M97.0737 98.0011H146.218C148.742 98.0011 151.163 98.8765 152.947 100.435C154.732 101.993 155.735 104.106 155.735 106.31V261.151C155.735 263.354 154.732 265.467 152.947 267.026C151.163 268.584 148.742 269.459 146.218 269.459H97.0737V98.0011Z" fill="black"/>
<path d="M94.2412 98.0011H143.386C145.909 98.0011 148.33 98.8765 150.115 100.435C151.899 101.993 152.902 104.106 152.902 106.31V261.151C152.902 263.354 151.899 265.467 150.115 267.026C148.33 268.584 145.909 269.459 143.386 269.459H94.2412V98.0011Z" fill="#FFC107"/>
<path d="M316.132 187.073H140.15V229.383H316.132V187.073Z" fill="#FFC107"/>
<path d="M492.4 187.317H316.418V229.627H492.4V187.317Z" fill="#FFC107"/>
<path opacity="0.15" d="M301.242 187.073H155.04C146.817 187.073 140.15 192.893 140.15 200.073V216.382C140.15 223.562 146.817 229.383 155.04 229.383H301.242C309.466 229.383 316.132 223.562 316.132 216.382V200.073C316.132 192.893 309.466 187.073 301.242 187.073Z" fill="white"/>
<path d="M336.677 109.257C342.31 109.257 346.876 105.27 346.876 100.352C346.876 95.434 342.31 91.4472 336.677 91.4472C331.044 91.4472 326.478 95.434 326.478 100.352C326.478 105.27 331.044 109.257 336.677 109.257Z" fill="#FFC107"/>
<path opacity="0.3" d="M336.677 109.257C342.31 109.257 346.876 105.27 346.876 100.352C346.876 95.434 342.31 91.4472 336.677 91.4472C331.044 91.4472 326.478 95.434 326.478 100.352C326.478 105.27 331.044 109.257 336.677 109.257Z" fill="black"/>
<path d="M178.552 109.257C184.185 109.257 188.751 105.27 188.751 100.352C188.751 95.434 184.185 91.4472 178.552 91.4472C172.919 91.4472 168.353 95.434 168.353 100.352C168.353 105.27 172.919 109.257 178.552 109.257Z" fill="#FFC107"/>
<path opacity="0.3" d="M178.552 109.257C184.185 109.257 188.751 105.27 188.751 100.352C188.751 95.434 184.185 91.4472 178.552 91.4472C172.919 91.4472 168.353 95.434 168.353 100.352C168.353 105.27 172.919 109.257 178.552 109.257Z" fill="black"/>
<path d="M173.447 53.3405C174.856 53.3405 175.999 51.846 175.999 50.0025C175.999 48.1589 174.856 46.6644 173.447 46.6644C172.037 46.6644 170.894 48.1589 170.894 50.0025C170.894 51.846 172.037 53.3405 173.447 53.3405Z" fill="#FDA57D"/>
<path opacity="0.15" d="M477.51 187.317H331.309C323.085 187.317 316.418 193.138 316.418 200.318V216.627C316.418 223.807 323.085 229.627 331.309 229.627H477.51C485.734 229.627 492.4 223.807 492.4 216.627V200.318C492.4 193.138 485.734 187.317 477.51 187.317Z" fill="white"/>
<g opacity="0.5">
<path opacity="0.5" d="M376.428 101.662C375.258 96.0462 374.06 90.3671 371.389 85.1425C368.465 79.4031 363.884 74.425 358.094 70.6955C357.234 70.1281 356.169 69.8505 355.094 69.9135C353.414 70.0406 352.899 70.9399 352.636 71.8685C352.603 71.9809 352.575 72.0884 352.552 72.2008C351.892 75.0501 352.334 77.8652 353.291 80.6412C354.484 84.1064 356.482 87.4835 358.145 90.8363C361.14 96.8439 363.125 103.198 364.039 109.701C364.162 110.562 364.258 111.446 364.28 112.331C364.296 112.857 364.281 113.384 364.235 113.909C364.16 114.939 363.892 115.952 363.44 116.905C363.362 117.062 363.278 117.225 363.188 117.394C363.099 117.564 363.002 117.713 362.897 117.844C361.878 119.31 360.289 120.356 358.732 121.387C357.176 122.418 355.413 123.518 353.554 124.075H353.616C352.751 124.348 351.837 124.478 350.918 124.461C348.046 124.383 344.984 122.365 342.095 122.839L341.771 122.902C338.815 123.601 336.548 127.658 336.525 130.233C336.525 130.438 336.525 130.637 336.525 130.829C336.525 130.898 336.525 130.966 336.553 131.035C336.581 131.103 336.587 131.294 336.609 131.416C336.632 131.538 336.643 131.567 336.665 131.641C336.688 131.714 336.716 131.861 336.749 131.968C336.783 132.076 336.8 132.12 336.828 132.193C336.856 132.266 336.9 132.393 336.94 132.491C336.979 132.589 337.007 132.638 337.04 132.706C337.074 132.775 337.13 132.892 337.18 132.98L337.304 133.185C337.359 133.268 337.41 133.356 337.471 133.439L337.617 133.635L337.807 133.869L337.97 134.05L338.188 134.265L338.367 134.431L338.608 134.632L338.804 134.783L339.067 134.969L339.274 135.111L339.559 135.282L339.772 135.409L340.086 135.57L340.304 135.678L340.657 135.829L340.864 135.917C341.032 135.986 341.205 136.049 341.379 136.108L341.631 136.191L342.034 136.318L342.325 136.396L342.655 136.484L342.98 136.557L343.293 136.626L343.64 136.689L343.943 136.743L344.307 136.797L344.598 136.836L344.973 136.88L345.253 136.909L345.644 136.939H345.919H346.322H346.579H346.999H347.878H348.337H348.499L348.992 136.904H349.087C350.485 136.798 351.86 136.534 353.179 136.118C357.361 134.734 360.91 132.208 364.196 129.554C370.712 124.3 376.87 117.78 377.39 110.048C377.592 107.258 377.004 104.443 376.428 101.662Z" fill="url(#paint6_linear)"/>
</g>
<path opacity="0.1" d="M348.869 99.8045H296.097V113.142H348.869V99.8045Z" fill="black"/>
<path d="M348.869 99.8045H296.097V111.93H348.869V99.8045Z" fill="#FFC107"/>
<path d="M326.651 101.422C331.251 101.422 334.981 98.1663 334.981 94.1499C334.981 90.1334 331.251 86.8775 326.651 86.8775C322.051 86.8775 318.321 90.1334 318.321 94.1499C318.321 98.1663 322.051 101.422 326.651 101.422Z" fill="#FFC107"/>
<path d="M310.943 105.342L310.842 105.254C311.031 105.129 311.185 104.968 311.29 104.782C311.396 104.597 311.451 104.393 311.451 104.186C311.451 103.979 311.396 103.775 311.29 103.59C311.185 103.404 311.031 103.243 310.842 103.118L310.932 103.02C311.134 103.157 311.298 103.333 311.41 103.534C311.523 103.735 311.582 103.955 311.582 104.179C311.582 104.402 311.523 104.623 311.41 104.824C311.298 105.024 311.134 105.2 310.932 105.337L310.943 105.342Z" fill="#4D8AF0"/>
<path opacity="0.1" d="M310.943 105.342L310.842 105.254C311.031 105.129 311.185 104.968 311.29 104.782C311.396 104.597 311.451 104.393 311.451 104.186C311.451 103.979 311.396 103.775 311.29 103.59C311.185 103.404 311.031 103.243 310.842 103.118L310.932 103.02C311.134 103.157 311.298 103.333 311.41 103.534C311.523 103.735 311.582 103.955 311.582 104.179C311.582 104.402 311.523 104.623 311.41 104.824C311.298 105.024 311.134 105.2 310.932 105.337L310.943 105.342Z" fill="black"/>
<path d="M310.842 105.342C310.64 105.205 310.476 105.029 310.364 104.828C310.251 104.628 310.192 104.407 310.192 104.184C310.192 103.96 310.251 103.739 310.364 103.539C310.476 103.338 310.64 103.162 310.842 103.025L310.932 103.123C310.743 103.248 310.589 103.409 310.484 103.595C310.378 103.78 310.323 103.984 310.323 104.191C310.323 104.398 310.378 104.602 310.484 104.787C310.589 104.973 310.743 105.134 310.932 105.259L310.842 105.342Z" fill="#4D8AF0"/>
<path d="M353.515 144.47C357.339 143.204 360.58 140.892 363.592 138.468C369.548 133.669 375.168 127.716 375.649 120.644C375.823 118.064 375.291 115.493 374.759 112.947C373.69 107.815 372.599 102.625 370.175 97.8545C367.502 92.6121 363.316 88.0652 358.027 84.6586C357.24 84.1387 356.263 83.8853 355.279 83.9451C353.599 84.0771 353.174 85.0838 352.95 86.0466C351.59 91.9115 355.323 97.6003 358.055 103.074C360.792 108.564 362.605 114.37 363.44 120.312C363.793 122.834 363.922 125.561 362.399 127.731C361.47 129.06 360.014 130.028 358.593 130.966C356.465 132.369 354.114 133.84 351.45 133.772C348.785 133.703 345.807 131.704 343.053 132.349C340.298 132.995 338.278 136.694 338.261 139.065C338.227 145.487 348.399 146.161 353.515 144.47Z" fill="#FFD180"/>
<g opacity="0.1">
<path opacity="0.1" d="M362.388 127.731C361.459 129.06 360.004 130.028 358.582 130.966C357.159 131.991 355.561 132.816 353.846 133.41C356.264 133.268 358.431 131.944 360.396 130.629C361.817 129.691 363.273 128.718 364.202 127.394C365.719 125.229 365.596 122.506 365.243 119.975C364.409 114.032 362.595 108.226 359.858 102.737C357.126 97.2582 353.387 91.5645 354.753 85.7094C354.791 85.3633 354.909 85.0276 355.102 84.7232C355.295 84.4189 355.557 84.1524 355.872 83.9402C355.666 83.9248 355.458 83.9248 355.251 83.9402C353.572 84.0722 353.146 85.079 352.922 86.0418C351.562 91.9066 355.296 97.5954 358.028 103.069C360.764 108.559 362.578 114.365 363.413 120.307C363.782 122.834 363.911 125.561 362.388 127.731Z" fill="black"/>
<path opacity="0.1" d="M340.086 138.742C340.086 136.552 341.872 133.224 344.273 132.227C343.864 132.218 343.455 132.259 343.059 132.349C340.355 132.99 338.283 136.694 338.267 139.065C338.233 145.056 347.072 146.034 352.418 144.778C347.106 145.452 340.052 144.079 340.086 138.742Z" fill="black"/>
</g>
<g opacity="0.5">
<path opacity="0.5" d="M301.096 71.9369C301.096 71.9369 316.345 69.2733 323.97 71.9369C323.97 71.9369 328.543 62.6167 333.117 62.6167C337.69 62.6167 339.213 77.2788 339.213 77.2788L345.309 98.5778C345.309 98.5778 374.278 143.84 345.309 167.797C316.34 191.755 270.604 165.119 270.604 147.813C270.604 130.507 279.752 94.5702 279.752 94.5702C279.752 94.5702 288.899 65.2852 291.949 62.6216C295 59.958 301.096 71.9369 301.096 71.9369Z" fill="url(#paint7_linear)"/>
</g>
<path d="M301.611 73.7892C301.611 73.7892 316.266 71.2282 323.594 73.7892C323.594 73.7892 327.989 64.8307 332.389 64.8307C336.789 64.8307 338.25 78.9062 338.25 78.9062L344.111 99.3793C344.111 99.3793 371.96 142.877 344.111 165.921C316.261 188.964 272.289 163.36 272.289 146.728C272.289 130.096 281.083 95.5428 281.083 95.5428C281.083 95.5428 289.878 67.3916 292.811 64.8307C295.744 62.2697 301.611 73.7892 301.611 73.7892Z" fill="#FFD180"/>
<g opacity="0.1">
<path opacity="0.1" d="M354.349 123.298C352.101 114.981 348.655 106.946 344.094 99.3842L345.017 102.62C348.988 109.192 352.118 116.127 354.349 123.298Z" fill="white"/>
<path opacity="0.1" d="M274.926 143.282C274.926 126.665 282.018 98.7782 282.018 98.7782C282.018 98.7782 290.813 70.6271 293.746 68.0661C296.679 65.5051 302.54 77.0246 302.54 77.0246C302.54 77.0246 317.196 74.4636 324.523 77.0246C324.523 77.0246 328.923 68.0661 333.318 68.0661C334.997 68.0661 336.29 70.1872 337.197 72.7824C336.301 68.9849 334.779 64.8307 332.394 64.8307C328 64.8307 323.6 73.7892 323.6 73.7892C316.272 71.2282 301.617 73.7892 301.617 73.7892C301.617 73.7892 295.756 62.2746 292.822 64.8307C289.889 67.3868 281.095 95.5428 281.095 95.5428C281.095 95.5428 274.002 123.401 274.002 140.047C273.996 141.552 274.926 143.761 274.926 143.282Z" fill="white"/>
</g>
<path d="M330.195 98.744C331.815 98.744 333.128 97.5974 333.128 96.183C333.128 94.7686 331.815 93.622 330.195 93.622C328.575 93.622 327.261 94.7686 327.261 96.183C327.261 97.5974 328.575 98.744 330.195 98.744Z" fill="#58555D"/>
<path d="M296.484 98.744C298.104 98.744 299.417 97.5974 299.417 96.183C299.417 94.7686 298.104 93.622 296.484 93.622C294.864 93.622 293.55 94.7686 293.55 96.183C293.55 97.5974 294.864 98.744 296.484 98.744Z" fill="#58555D"/>
<path d="M314.072 101.305C316.499 101.305 318.466 100.158 318.466 98.744C318.466 97.3296 316.499 96.183 314.072 96.183C311.645 96.183 309.678 97.3296 309.678 98.744C309.678 100.158 311.645 101.305 314.072 101.305Z" fill="#58555D"/>
<path d="M352.022 92.9781L338.83 95.5357L339.148 96.7857L352.34 94.2281L352.022 92.9781Z" fill="#FFD180"/>
<path d="M353.508 98.0984L338.85 100.649L339.136 101.904L353.795 99.3542L353.508 98.0984Z" fill="#FFD180"/>
<path d="M271.833 89.187L271.289 90.3759L285.946 95.4942L286.491 94.3053L271.833 89.187Z" fill="#FFD180"/>
<path d="M267.299 95.5618L267.076 96.8274L286.131 99.3879L286.354 98.1223L267.299 95.5618Z" fill="#FFD180"/>
<path opacity="0.1" d="M310.417 115.117C306.58 115.12 302.75 114.835 298.969 114.266C291.7 113.173 284.705 110.978 278.302 107.781L278.811 105.713C285.287 108.775 292.278 110.92 299.524 112.067C310.076 113.646 328.224 113.171 346.669 104.286L347.901 106.241C334.511 112.702 320.415 115.117 310.417 115.117Z" fill="black"/>
<path d="M346.669 103.812C328.196 112.697 310.07 113.171 299.523 111.593C292.277 110.446 285.286 108.301 278.811 105.239L277.456 107.126C284.167 110.346 291.433 112.592 298.969 113.777C302.752 114.348 306.584 114.634 310.422 114.633C320.42 114.633 334.493 112.223 347.929 105.772L346.669 103.812ZM310.893 114.457C310.836 114.457 310.781 114.442 310.734 114.415C310.687 114.387 310.65 114.348 310.629 114.303C310.607 114.257 310.602 114.207 310.613 114.159C310.624 114.111 310.651 114.066 310.691 114.031C310.731 113.996 310.781 113.973 310.837 113.963C310.892 113.953 310.95 113.958 311.002 113.977C311.054 113.996 311.099 114.028 311.13 114.069C311.161 114.11 311.178 114.158 311.178 114.208C311.177 114.273 311.146 114.335 311.092 114.381C311.039 114.426 310.967 114.452 310.893 114.452V114.457Z" fill="#F55F44"/>
<path opacity="0.1" d="M308.055 117.917C308.055 118.573 308.353 119.202 308.884 119.666C309.416 120.129 310.136 120.39 310.887 120.39C311.638 120.39 312.359 120.129 312.89 119.666C313.421 119.202 313.72 118.573 313.72 117.917C313.72 117.261 313.421 116.632 312.89 116.168C312.359 115.705 311.638 115.444 310.887 115.444C310.136 115.444 309.416 115.705 308.884 116.168C308.353 116.632 308.055 117.261 308.055 117.917ZM310.887 116.681C310.794 116.681 310.703 116.656 310.626 116.611C310.549 116.566 310.488 116.502 310.453 116.427C310.417 116.352 310.408 116.27 310.426 116.19C310.444 116.11 310.489 116.037 310.555 115.98C310.621 115.922 310.704 115.883 310.795 115.867C310.887 115.852 310.981 115.86 311.067 115.891C311.153 115.922 311.227 115.974 311.278 116.042C311.33 116.109 311.357 116.189 311.357 116.27C311.357 116.378 311.309 116.482 311.222 116.559C311.135 116.635 311.017 116.679 310.893 116.681H310.887Z" fill="url(#paint8_linear)"/>
<path d="M308.34 117.917C308.34 118.508 308.609 119.075 309.087 119.493C309.566 119.911 310.216 120.146 310.893 120.146C311.57 120.146 312.219 119.911 312.698 119.493C313.176 119.075 313.445 118.508 313.445 117.917C313.445 117.326 313.176 116.759 312.698 116.341C312.219 115.923 311.57 115.688 310.893 115.688C310.216 115.688 309.566 115.923 309.087 116.341C308.609 116.759 308.34 117.326 308.34 117.917ZM310.893 116.803C310.808 116.803 310.726 116.781 310.656 116.74C310.586 116.699 310.532 116.641 310.499 116.573C310.467 116.506 310.459 116.431 310.475 116.359C310.492 116.287 310.532 116.221 310.592 116.169C310.651 116.117 310.727 116.081 310.81 116.067C310.892 116.053 310.978 116.06 311.055 116.088C311.133 116.116 311.2 116.164 311.246 116.225C311.293 116.286 311.318 116.358 311.318 116.431C311.318 116.53 311.273 116.624 311.193 116.694C311.114 116.764 311.005 116.803 310.893 116.803Z" fill="#4D8AF0"/>
<path d="M342.913 104.555C303.901 124.593 281.419 106.021 281.419 106.021L342.913 104.555Z" fill="#FFD180"/>
<path d="M449.934 203.001C447.544 197.082 421.945 213.753 421.945 213.753L416.028 213.445L404.641 204.237L412.59 197.297L345.841 147.324C344.059 145.992 341.977 144.999 339.73 144.41C337.483 143.821 335.12 143.648 332.792 143.903L277.3 149.944C277.059 147.168 275.1 143.869 272.329 140.501C266.635 132.349 254.65 123.147 250.228 119.877L243.443 80.0548L249.192 72.5233C248.128 72.2693 247.082 71.9626 246.057 71.6045L247.272 70.0113L246.824 69.9037L247.384 69.327H247.317L261.637 54.8605C262.7 53.7869 263.245 52.3951 263.157 50.9777C263.07 49.5604 262.356 48.228 261.166 47.2607L229.118 26.0007C230.09 23.9757 230.556 21.7929 230.484 19.5983C230.736 15.3756 228.569 11.0894 221.309 7.9175C216.816 6.0474 212.111 4.59598 207.269 3.58731C199.292 1.79523 190.91 1.90324 182.997 3.9001C182.868 3.75837 182.728 3.61664 182.582 3.47002C172.719 -6.3731 159.782 7.77088 159.278 8.35737L108.718 57.4557C107.343 59.3616 106.84 61.6494 107.309 63.8643C107.778 66.0792 109.184 68.059 111.248 69.4101L138.012 86.9313L137.928 87.0828L139.439 88.0602C138.32 90.0152 136.758 91.3348 134.714 91.5351L138.812 93.3239C138.165 93.7193 137.414 93.9664 136.629 94.0423L155.393 102.234C155.393 110.747 156.401 149.724 172.254 168.858C173.879 171.213 175.812 173.394 178.015 175.358C178.015 175.358 179.364 174.718 181.827 173.682L184.659 178.633C187.772 184.068 192.765 188.511 198.931 191.331C205.097 194.151 212.123 195.206 219.014 194.345L307.097 183.359L306.163 185.802L306.666 185.739L278.117 260.515L282.83 261.889L282.741 262.035L283.407 262.284L277.467 272.059L258.776 284.61C258.776 284.61 313.406 308.455 319.155 304.692C324.904 300.929 299.003 284.61 299.003 284.61L297.564 279.591L303.851 268.003L309.118 269.537L351.45 195.621L352.889 193.109L381.539 224.388L389.617 217.34L390.49 218.113L390.563 218.049L401.758 227.941L409.87 247.271C409.87 247.271 452.313 208.919 449.934 203.001ZM227.696 59.264L227.136 58.6971C223.722 62.4261 217.681 66.9371 210.947 69.9917V65.8815L211.266 65.6371V63.8483C215.523 60.4275 218.601 56.0369 220.154 51.1712C221.707 46.3054 221.672 41.1578 220.055 36.3081L238.651 48.7757L227.696 59.264ZM164.579 12.9173L164.132 12.5263L164.585 12.9173H164.579ZM149.717 39.0548C149.594 40.3581 149.543 41.6695 149.566 42.9891C149.533 44.9052 149.655 46.8208 149.93 48.722C150.887 55.3639 153.613 60.7937 159.228 63.384C164.12 65.6322 167.339 65.51 169.388 63.9754L169.612 64.1513C169.784 66.7491 170.557 69.2894 171.885 71.6192C161.404 69.7086 151.394 66.1889 142.322 61.2238C142.322 61.2238 142.356 61.5561 142.395 62.1524L134.703 55.4372L149.717 39.0548Z" fill="url(#paint9_linear)"/>
<path d="M290.068 247.921L277.501 268.648L297.049 275.959L309.616 252.798L290.068 247.921Z" fill="#FDA57D"/>
<path d="M297.049 275.959L298.443 280.847C298.443 280.847 323.578 296.696 317.991 300.352C312.404 304.008 259.341 280.847 259.341 280.847L277.495 268.653L297.049 275.959Z" fill="#333333"/>
<path opacity="0.1" d="M308.279 254.949L288.501 249.196L282.618 258.893L302.166 266.209L308.279 254.949Z" fill="black"/>
<path d="M379.367 209.095L398.243 225.781L412.098 211.691L390.557 194.277L379.367 209.095Z" fill="#FDA57D"/>
<path opacity="0.1" d="M391.335 195.088L380.145 209.912L387.299 216.231L401.814 203.558L391.335 195.088Z" fill="black"/>
<path d="M412.098 211.686L417.847 211.984C417.847 211.984 442.702 195.802 445.025 201.549C447.348 207.297 406.125 244.558 406.125 244.558L398.249 225.781L412.098 211.686Z" fill="#333333"/>
<path d="M233.126 86.9313L262.135 57.6072C263.168 56.5638 263.698 55.2112 263.612 53.8339C263.526 52.4566 262.832 51.162 261.676 50.2224L198.553 8.45511L190.89 18.8945L239.81 51.7717L219.042 71.6534L233.126 86.9313Z" fill="#FDA57D"/>
<path opacity="0.1" d="M229.796 61.3949L219.646 71.1109L233.748 86.4083L248.302 71.7169C241.202 69.7546 234.819 66.1945 229.796 61.3949Z" fill="black"/>
<path d="M148.905 93.2946L116.062 71.7902C114.058 70.4774 112.692 68.5542 112.237 66.4029C111.782 64.2516 112.27 62.0295 113.605 60.1779L162.749 12.4334L172.825 21.2306L138.829 58.2034L158.926 75.749L148.905 93.2946Z" fill="#FDA57D"/>
<path opacity="0.1" d="M141.958 88.9644L147.332 92.4833L157.408 74.9377L144.757 63.9265C145.026 67.6604 145.781 82.171 141.958 88.9644Z" fill="black"/>
<path d="M308.273 178.457L278.123 257.422L308.273 266.194L358.515 178.457L318.321 169.684L308.273 178.457Z" fill="#4D8AF0"/>
<path opacity="0.1" d="M306.874 180.895L305.368 184.844L337.024 180.895L349.39 194.394L357.121 180.895L316.922 172.123L306.874 180.895Z" fill="black"/>
<path d="M162.682 12.4872C162.682 12.4872 175.557 -2.0087 185.337 7.74645C195.116 17.5016 169.976 18.7185 169.976 18.7185L162.682 12.4872Z" fill="#FDA57D"/>
<path d="M177.634 160.911L187.346 177.875C190.37 183.155 195.22 187.47 201.209 190.21C207.198 192.949 214.022 193.974 220.716 193.138L338.418 178.476L378.617 222.345L408.761 196.027L343.909 147.495C342.179 146.2 340.158 145.235 337.975 144.662C335.793 144.089 333.497 143.92 331.236 144.167L177.634 160.911Z" fill="#4D8AF0"/>
<path opacity="0.1" d="M148.099 66.2676C148.099 66.2676 150.747 94.7608 140.699 95.7383L160.795 104.535C160.795 104.535 159.676 156.2 180.892 174.723C180.892 174.723 219.971 156.2 261.284 157.177C302.597 158.155 251.208 122.081 251.208 122.081L244.423 82.1417L250.021 74.8106C242.452 72.8319 235.677 69.0289 230.473 63.8385C224.875 69.9331 212.078 78.1976 200.977 78.1976H196.174C179.627 78.1976 162.027 75.2652 148.082 67.4943L148.099 66.2676Z" fill="black"/>
<path d="M146.235 63.8288C146.235 63.8288 148.905 92.322 138.829 93.2946L158.926 102.092C158.926 102.092 157.806 153.756 179.022 172.279C179.022 172.279 218.102 153.756 259.414 154.733C300.727 155.711 249.338 119.637 249.338 119.637L242.553 79.698L248.151 72.367C240.583 70.3883 233.807 66.5852 228.603 61.3949C223.005 67.4894 210.208 75.7539 199.108 75.7539H194.305C177.757 75.7539 160.157 71.6143 146.213 63.8288H146.235Z" fill="#3AD29F"/>
<path d="M172.708 55.794V65.5687C172.708 70.5329 174.967 75.2936 178.988 78.8036L202.858 99.6432L210.801 85.7681C212.185 83.3523 212.906 80.6884 212.906 77.9874V55.794H172.708Z" fill="#FDA57D"/>
<path opacity="0.1" d="M173.016 67.0789C173.016 67.4405 173.016 67.7973 173.055 68.159C178.583 72.4636 185.733 74.8401 193.141 74.8347C200.549 74.8293 207.694 72.4424 213.214 68.1296V57.2846H173.016V67.0789Z" fill="black"/>
<path d="M192.804 73.3444C209.453 73.3444 222.949 61.5613 222.949 47.0261C222.949 32.4908 209.453 20.7077 192.804 20.7077C176.156 20.7077 162.659 32.4908 162.659 47.0261C162.659 61.5613 176.156 73.3444 192.804 73.3444Z" fill="#FDA57D"/>
<path opacity="0.1" d="M172.708 39.6022H222.955C222.955 39.6022 243.052 22.0566 222.955 13.2838C218.591 11.4684 214.02 10.0596 209.318 9.08069C178.759 2.3166 149.7 24.383 153.63 51.6935C154.559 58.1448 157.207 63.4231 162.66 65.9205C183.87 75.6561 172.708 39.6022 172.708 39.6022Z" fill="black"/>
<path d="M172.708 38.3852H222.955C222.955 38.3852 243.052 20.8397 222.955 12.0669C218.591 10.2514 214.02 8.84261 209.318 7.86374C178.759 1.09965 149.7 23.166 153.63 50.4765C154.559 56.9278 157.207 62.2062 162.66 64.7036C183.87 74.4539 172.708 38.3852 172.708 38.3852Z" fill="#333333"/>
<path d="M174.163 51.6348C175.706 51.6348 176.956 49.7246 176.956 47.3682C176.956 45.0118 175.706 43.1015 174.163 43.1015C172.62 43.1015 171.37 45.0118 171.37 47.3682C171.37 49.7246 172.62 51.6348 174.163 51.6348Z" fill="#FDA57D"/>
<path opacity="0.1" d="M158.802 101.623L160.202 97.962L164.389 100.401L158.802 101.623Z" fill="black"/>
<path opacity="0.1" d="M249.416 119.642C249.416 119.642 234.212 125.996 230.02 132.105L249.416 119.642Z" fill="black"/>
<path opacity="0.1" d="M242.587 79.6784L241.193 83.3342L238.399 79.6784H242.587Z" fill="black"/>
<path d="M172.708 38.3852H222.955C222.955 38.3852 243.052 20.8397 222.955 12.0669C218.591 10.2514 214.02 8.84261 209.318 7.86374C178.759 1.09965 149.7 23.166 153.63 50.4765C154.559 56.9278 157.207 62.2062 162.66 64.7036C183.87 74.4539 172.708 38.3852 172.708 38.3852Z" fill="#333333"/>
<path opacity="0.1" d="M307.887 136.924C307.887 136.924 318.081 156.273 304.696 157.94C291.311 159.606 297.419 141.733 297.419 141.733C297.419 141.733 296.081 136.43 292.823 136.132" fill="black"/>
<path opacity="0.1" d="M320.202 136.455C320.202 136.455 308.082 154.939 321.243 157.617C334.404 160.295 330.138 142.041 330.138 142.041C330.138 142.041 332.008 136.865 335.289 136.816" fill="black"/>
<path d="M306.705 136.381C306.705 136.381 316.899 155.73 303.514 157.397C290.13 159.064 296.237 141.191 296.237 141.191C296.237 141.191 294.899 135.873 291.652 135.575" fill="#FFD180"/>
<path d="M321.148 135.639C321.148 135.639 309.006 154.127 322.189 156.786C335.372 159.445 331.084 141.21 331.084 141.21C331.084 141.21 332.954 136.034 336.234 135.986" fill="#FFD180"/>
<path opacity="0.5" d="M299.451 153.375H299.221V157.153H299.451V153.375Z" fill="#58555D"/>
<path opacity="0.5" d="M303.156 153.375H302.927V157.153H303.156V153.375Z" fill="#58555D"/>
<path opacity="0.5" d="M301.147 152.172H300.917V157.456H301.147V152.172Z" fill="#58555D"/>
<path opacity="0.5" d="M323.521 152.568H323.292V156.346H323.521V152.568Z" fill="#58555D"/>
<path opacity="0.5" d="M327.228 152.568H326.998V156.346H327.228V152.568Z" fill="#58555D"/>
<path opacity="0.5" d="M325.218 151.361H324.988V156.644H325.218V151.361Z" fill="#58555D"/>
<g opacity="0.5">
<path opacity="0.5" d="M316.007 374.432C329.956 370.347 337.472 357.163 332.794 344.984C328.116 332.805 313.015 326.244 299.065 330.328C285.116 334.412 277.6 347.596 282.278 359.775C286.956 371.954 302.057 378.516 316.007 374.432Z" fill="url(#paint10_linear)"/>
</g>
<path d="M315.466 373.023C328.524 369.2 335.56 356.858 331.181 345.457C326.801 334.056 312.665 327.913 299.606 331.737C286.548 335.56 279.512 347.902 283.892 359.303C288.271 370.704 302.407 376.847 315.466 373.023Z" fill="#F55F44"/>
<g opacity="0.5">
<path opacity="0.5" d="M241.165 381.546C237.582 382.596 233.121 381.849 231.458 378.848C230.501 377.113 230.73 375.172 230.954 373.296C231.201 371.238 231.408 369.464 230.081 368.315C229.396 367.806 228.588 367.437 227.719 367.235C226.599 366.908 225.39 366.634 224.237 366.37C222.181 365.958 220.172 365.382 218.236 364.65C214.429 363.091 211.994 360.457 211.725 357.602C211.496 355.159 212.845 352.93 214.133 350.794C215.42 348.659 216.719 346.537 216.103 344.441C215.269 341.611 211.378 340.267 207.952 339.065L207.393 338.879C203.205 337.413 198.716 334.319 199.835 330.351C200.227 328.967 201.229 327.907 202.198 326.929C202.854 326.294 203.418 325.589 203.877 324.833C205.389 322.052 203.317 318.836 202.394 317.58C201.672 316.602 200.815 315.703 199.987 314.809C198.688 313.495 197.539 312.074 196.555 310.567L196.398 310.312C194.125 306.559 194.081 306.402 194.271 302.312V301.823L196.253 301.891V302.38C196.085 306.09 196.085 306.09 198.15 309.501L198.307 309.755C199.231 311.164 200.309 312.492 201.526 313.719C202.382 314.643 203.267 315.6 204.045 316.622C206.447 319.794 207.034 323.054 205.663 325.571C205.127 326.455 204.465 327.276 203.692 328.014C202.83 328.914 202.013 329.764 201.733 330.761C200.86 333.845 205.321 336.298 208.098 337.266L208.63 337.452C212.308 338.723 216.887 340.306 217.973 343.986C218.779 346.718 217.284 349.181 215.834 351.566C214.62 353.57 213.466 355.476 213.651 357.431C213.897 360.056 216.59 362.055 219.025 363.057C220.851 363.744 222.746 364.284 224.685 364.669C225.871 364.938 227.097 365.222 228.295 365.569C229.459 365.848 230.533 366.36 231.43 367.064C233.429 368.794 233.149 371.165 232.88 373.457C232.678 375.168 232.483 376.785 233.199 378.076C234.492 380.412 238.5 380.754 241.288 379.605C243.572 378.667 245.369 377.069 247.272 375.383C247.888 374.835 248.526 374.273 249.176 373.736C252.725 370.803 256.313 369.523 259.56 370.016C260.59 370.203 261.594 370.487 262.555 370.862C263.302 371.148 264.075 371.381 264.867 371.556C266.632 371.83 268.45 371.514 269.96 370.67C271.469 369.825 272.559 368.515 273.012 367.001C273.084 366.712 273.135 366.409 273.191 366.092C273.364 365.075 273.56 363.922 274.489 363.027C275.419 362.133 276.891 361.806 277.938 361.595L288.742 359.416L289.19 361.102L278.386 363.281C277.361 363.487 276.471 363.702 275.962 364.191C275.452 364.679 275.301 365.495 275.161 366.346C275.105 366.678 275.044 367.025 274.96 367.367C274.391 369.329 272.987 371.028 271.034 372.118C269.081 373.208 266.725 373.606 264.447 373.232C263.548 373.036 262.67 372.775 261.821 372.45C260.99 372.124 260.121 371.875 259.229 371.707C255.938 371.219 252.697 373.208 250.553 374.977C249.931 375.49 249.304 376.047 248.7 376.58C246.757 378.3 244.753 380.084 242.15 381.155C241.831 381.301 241.502 381.432 241.165 381.546Z" fill="url(#paint11_linear)"/>
</g>
<path d="M241.434 380.685C237.851 381.736 233.389 380.988 231.727 377.987C230.769 376.252 230.999 374.312 231.223 372.435C231.469 370.378 231.676 368.604 230.35 367.455C229.664 366.946 228.857 366.577 227.987 366.375C226.868 366.048 225.659 365.774 224.505 365.51C222.449 365.098 220.44 364.522 218.504 363.79C214.698 362.231 212.263 359.596 211.994 356.742C211.764 354.298 213.114 352.07 214.401 349.934C215.689 347.798 216.987 345.677 216.372 343.581C215.537 340.751 211.647 339.407 208.221 338.204L207.661 338.019C203.474 336.553 198.984 333.459 200.104 329.49C200.496 328.107 201.498 327.047 202.466 326.069C203.123 325.433 203.687 324.729 204.146 323.972C205.657 321.192 203.586 317.976 202.662 316.72C201.94 315.742 201.084 314.843 200.255 313.949C198.957 312.635 197.807 311.214 196.824 309.706L196.667 309.452C194.394 305.699 194.349 305.542 194.54 301.452V300.963L196.521 301.031V301.52C196.353 305.23 196.353 305.23 198.419 308.641L198.576 308.895C199.499 310.304 200.577 311.631 201.795 312.859C202.651 313.782 203.535 314.74 204.314 315.762C206.715 318.934 207.303 322.194 205.931 324.71C205.396 325.595 204.733 326.416 203.961 327.154C203.099 328.053 202.282 328.904 202.002 329.901C201.128 332.985 205.59 335.438 208.367 336.406L208.898 336.592C212.576 337.862 217.155 339.446 218.241 343.126C219.047 345.858 217.553 348.321 216.103 350.706C214.888 352.71 213.735 354.616 213.92 356.571C214.166 359.196 216.859 361.195 219.294 362.196C221.12 362.884 223.014 363.424 224.953 363.809C226.14 364.078 227.366 364.362 228.564 364.709C229.728 364.987 230.801 365.499 231.699 366.204C233.697 367.934 233.417 370.305 233.149 372.597C232.947 374.307 232.751 375.925 233.468 377.215C234.761 379.551 238.769 379.894 241.557 378.745C243.841 377.807 245.638 376.208 247.541 374.522C248.157 373.975 248.795 373.413 249.444 372.875C252.993 369.943 256.582 368.662 259.828 369.156C260.859 369.343 261.863 369.627 262.823 370.002C263.571 370.288 264.344 370.52 265.135 370.696C266.9 370.97 268.719 370.654 270.228 369.809C271.738 368.965 272.828 367.655 273.28 366.141C273.353 365.852 273.403 365.549 273.459 365.231C273.633 364.215 273.829 363.061 274.758 362.167C275.687 361.273 277.16 360.945 278.206 360.735L289.01 358.555L289.458 360.241L278.654 362.421C277.63 362.627 276.74 362.842 276.23 363.33C275.721 363.819 275.57 364.635 275.43 365.486C275.374 365.818 275.312 366.165 275.228 366.507C274.66 368.469 273.256 370.168 271.303 371.258C269.349 372.347 266.993 372.746 264.715 372.372C263.817 372.176 262.938 371.914 262.09 371.59C261.258 371.263 260.39 371.014 259.498 370.847C256.206 370.358 252.965 372.347 250.821 374.117C250.2 374.63 249.573 375.187 248.968 375.72C247.026 377.44 245.022 379.224 242.419 380.294C242.099 380.441 241.77 380.572 241.434 380.685Z" fill="#F55F44"/>
<path opacity="0.2" d="M306.084 336.87C306.084 336.87 319.883 335.047 326.64 351.86" stroke="black" stroke-miterlimit="10"/>
<path opacity="0.2" d="M290.818 363.653C290.818 363.653 280.574 350.995 298.829 337.036" stroke="black" stroke-miterlimit="10"/>
<path opacity="0.2" d="M295.012 359.03C295.012 359.03 290.069 352.388 295.252 346.435" stroke="black" stroke-miterlimit="10"/>
<path opacity="0.2" d="M303.862 343.913C303.862 343.913 310.406 346.171 311.324 356.341" stroke="black" stroke-miterlimit="10"/>
<path opacity="0.2" d="M311.542 332.007C311.542 332.007 321.764 333.713 328.896 345.985" stroke="black" stroke-miterlimit="10"/>
<path opacity="0.2" d="M298.37 335.863C298.37 335.863 303.201 332.882 307.685 334.441" stroke="black" stroke-miterlimit="10"/>
<path opacity="0.2" d="M302.02 364.01C302.02 364.01 308.48 367.597 325.128 357.246" stroke="black" stroke-miterlimit="10"/>
<path opacity="0.2" d="M300.873 371.145C300.873 371.145 304.914 374.659 313.328 371.673" stroke="black" stroke-miterlimit="10"/>
<path opacity="0.2" d="M288.887 339.949C287.152 342.197 285.986 344.742 285.466 347.414C284.947 350.087 285.086 352.825 285.876 355.447" stroke="black" stroke-miterlimit="10"/>
<path opacity="0.2" d="M294.312 362.627C294.312 362.627 293.78 365.916 297.995 367.548" stroke="black" stroke-miterlimit="10"/>
<path opacity="0.2" d="M327.821 358.819C327.821 358.819 327.563 365.173 323.533 365.554" stroke="black" stroke-miterlimit="10"/>
<path opacity="0.2" d="M305.704 368.164C308.136 368.447 310.611 368.242 312.939 367.565C315.267 366.887 317.387 365.755 319.139 364.254" stroke="black" stroke-miterlimit="10"/>
<path opacity="0.2" d="M311.928 345.467C311.928 345.467 315.427 347.574 315.08 351.332" stroke="black" stroke-miterlimit="10"/>
<path opacity="0.2" d="M298.583 349.636C298.583 349.636 297.609 354.098 300.122 356.752" stroke="black" stroke-miterlimit="10"/>
<path opacity="0.2" d="M301.539 348.771C301.539 348.771 305.132 352.681 304.153 355.574" stroke="black" stroke-miterlimit="10"/>
</g>
<defs>
<linearGradient id="paint0_linear" x1="271.5" y1="301.193" x2="271.5" y2="44.2452" gradientUnits="userSpaceOnUse">
<stop stop-color="#808080" stop-opacity="0.25"/>
<stop offset="0.54" stop-color="#808080" stop-opacity="0.12"/>
<stop offset="1" stop-color="#808080" stop-opacity="0.1"/>
</linearGradient>
<linearGradient id="paint1_linear" x1="42564.7" y1="-217135" x2="31409.7" y2="-235301" gradientUnits="userSpaceOnUse">
<stop stop-color="#808080" stop-opacity="0.25"/>
<stop offset="0.54" stop-color="#808080" stop-opacity="0.12"/>
<stop offset="1" stop-color="#808080" stop-opacity="0.1"/>
</linearGradient>
<linearGradient id="paint2_linear" x1="6229.85" y1="-31508.1" x2="6030.76" y2="-31832.3" gradientUnits="userSpaceOnUse">
<stop stop-color="#808080" stop-opacity="0.25"/>
<stop offset="0.54" stop-color="#808080" stop-opacity="0.12"/>
<stop offset="1" stop-color="#808080" stop-opacity="0.1"/>
</linearGradient>
<linearGradient id="paint3_linear" x1="7273.04" y1="-31009.7" x2="7073.88" y2="-31334" gradientUnits="userSpaceOnUse">
<stop stop-color="#808080" stop-opacity="0.25"/>
<stop offset="0.54" stop-color="#808080" stop-opacity="0.12"/>
<stop offset="1" stop-color="#808080" stop-opacity="0.1"/>
</linearGradient>
<linearGradient id="paint4_linear" x1="5686.25" y1="-30459.3" x2="5487.1" y2="-30783.6" gradientUnits="userSpaceOnUse">
<stop stop-color="#808080" stop-opacity="0.25"/>
<stop offset="0.54" stop-color="#808080" stop-opacity="0.12"/>
<stop offset="1" stop-color="#808080" stop-opacity="0.1"/>
</linearGradient>
<linearGradient id="paint5_linear" x1="6671.27" y1="-29923.7" x2="6472.12" y2="-30248.1" gradientUnits="userSpaceOnUse">
<stop stop-color="#808080" stop-opacity="0.25"/>
<stop offset="0.54" stop-color="#808080" stop-opacity="0.12"/>
<stop offset="1" stop-color="#808080" stop-opacity="0.1"/>
</linearGradient>
<linearGradient id="paint6_linear" x1="31125.6" y1="22831.9" x2="31125.6" y2="13626.2" gradientUnits="userSpaceOnUse">
<stop stop-color="#808080" stop-opacity="0.25"/>
<stop offset="0.54" stop-color="#808080" stop-opacity="0.12"/>
<stop offset="1" stop-color="#808080" stop-opacity="0.1"/>
</linearGradient>
<linearGradient id="paint7_linear" x1="59529.7" y1="48639.9" x2="59529.7" y2="21533.9" gradientUnits="userSpaceOnUse">
<stop stop-color="#808080" stop-opacity="0.25"/>
<stop offset="0.54" stop-color="#808080" stop-opacity="0.12"/>
<stop offset="1" stop-color="#808080" stop-opacity="0.1"/>
</linearGradient>
<linearGradient id="paint8_linear" x1="310.893" y1="120.39" x2="310.893" y2="115.444" gradientUnits="userSpaceOnUse">
<stop stop-color="white"/>
<stop offset="1"/>
</linearGradient>
<linearGradient id="paint9_linear" x1="210184" y1="208528" x2="210184" y2="18061.8" gradientUnits="userSpaceOnUse">
<stop stop-color="#808080" stop-opacity="0.25"/>
<stop offset="0.54" stop-color="#808080" stop-opacity="0.12"/>
<stop offset="1" stop-color="#808080" stop-opacity="0.1"/>
</linearGradient>
<linearGradient id="paint10_linear" x1="54533.3" y1="-31136.5" x2="53273.9" y2="-35437.7" gradientUnits="userSpaceOnUse">
<stop stop-color="#808080" stop-opacity="0.25"/>
<stop offset="0.54" stop-color="#808080" stop-opacity="0.12"/>
<stop offset="1" stop-color="#808080" stop-opacity="0.1"/>
</linearGradient>
<linearGradient id="paint11_linear" x1="87182.7" y1="-54858.9" x2="83048.8" y2="-68977.6" gradientUnits="userSpaceOnUse">
<stop stop-color="#808080" stop-opacity="0.25"/>
<stop offset="0.54" stop-color="#808080" stop-opacity="0.12"/>
<stop offset="1" stop-color="#808080" stop-opacity="0.1"/>
</linearGradient>
<clipPath id="clip0">
<rect width="543" height="382" fill="white"/>
</clipPath>
</defs>
</svg>
