<svg width="498" height="355" viewBox="0 0 498 355" fill="none" xmlns="http://www.w3.org/2000/svg">
<path opacity="0.1" d="M447.194 301.502C443.481 303.417 439.591 305.07 435.758 306.693C421.579 312.676 407.182 318.723 391.955 320.778C363.342 324.612 333.822 314.179 305.715 320.689C282.171 326.125 262.699 342.782 239.697 350.201C229.002 353.649 217.874 355 206.647 355H205.197C203.815 355 202.438 354.948 201.056 354.896C189.673 354.468 178.242 352.809 167.083 350.634C131.848 343.852 95.9863 331.42 69.0474 308.534C147.486 294.194 309.063 272.189 447.194 301.502Z" fill="#252223"/>
<path opacity="0.3" d="M474.534 129.897V96.5099H454.718V129.897H431.252V78.2513H414.044V39.6473H399.964V0H370.762V39.6473H356.683V78.2513H339.996V31.8222H330.609V8.3468H324.873V31.8222H291.499V179.978H265.948V164.328H250.304V179.978H224.752V129.897H178.863V96.5099H159.047V129.897H158.004V194.063H137.146V156.503H112.115V194.063H91.2565V78.2513H75.0911V39.6473H15.644V78.2513H0V282.226H91.2565H158.004H224.752H291.499H339.996H431.252H498V129.897H474.534Z" fill="#FFC107"/>
<path opacity="0.4" d="M31.8094 90.2498H9.90784V102.77H31.8094V90.2498Z" fill="white"/>
<path opacity="0.4" d="M58.9257 102.77H80.8273V90.2498H58.9257V102.77Z" fill="white"/>
<path opacity="0.4" d="M31.8094 114.769H9.90784V127.289H31.8094V114.769Z" fill="white"/>
<path opacity="0.4" d="M58.9257 127.289H80.8273V114.768H58.9257V127.289Z" fill="white"/>
<path opacity="0.4" d="M31.8094 139.287H9.90784V151.807H31.8094V139.287Z" fill="white"/>
<path opacity="0.4" d="M58.9257 151.807H80.8273V139.287H58.9257V151.807Z" fill="white"/>
<path opacity="0.4" d="M31.8094 163.806H9.90784V176.326H31.8094V163.806Z" fill="white"/>
<path opacity="0.4" d="M58.9257 176.326H80.8273V163.806H58.9257V176.326Z" fill="white"/>
<path opacity="0.4" d="M31.8094 188.325H9.90784V200.845H31.8094V188.325Z" fill="white"/>
<path opacity="0.4" d="M58.9257 200.845H80.8273V188.325H58.9257V200.845Z" fill="white"/>
<path opacity="0.4" d="M31.8094 212.844H9.90784V225.364H31.8094V212.844Z" fill="white"/>
<path opacity="0.4" d="M58.9257 225.364H80.8273V212.844H58.9257V225.364Z" fill="white"/>
<path opacity="0.4" d="M31.8094 237.362H9.90784V249.882H31.8094V237.362Z" fill="white"/>
<path opacity="0.4" d="M58.9257 249.882H80.8273V237.362H58.9257V249.882Z" fill="white"/>
<path opacity="0.4" d="M150.182 206.583H99.0785V212.843H150.182V206.583Z" fill="white"/>
<path opacity="0.4" d="M150.182 215.974H99.0785V222.234H150.182V215.974Z" fill="white"/>
<path opacity="0.4" d="M150.182 225.364H99.0785V231.624H150.182V225.364Z" fill="white"/>
<path opacity="0.4" d="M283.678 209.714H232.574V215.974H283.678V209.714Z" fill="white"/>
<path opacity="0.4" d="M283.678 219.104H232.574V225.364H283.678V219.104Z" fill="white"/>
<path opacity="0.4" d="M283.678 228.494H232.574V234.754H283.678V228.494Z" fill="white"/>
<path opacity="0.4" d="M150.182 234.754H99.0785V241.014H150.182V234.754Z" fill="white"/>
<path opacity="0.4" d="M150.182 244.144H99.0785V250.404H150.182V244.144Z" fill="white"/>
<path opacity="0.4" d="M150.182 253.534H99.0785V259.794H150.182V253.534Z" fill="white"/>
<path opacity="0.4" d="M183.035 141.896H168.955V160.154H183.035V141.896Z" fill="white"/>
<path opacity="0.4" d="M199.721 160.154H213.801V141.896H199.721V160.154Z" fill="white"/>
<path opacity="0.4" d="M183.035 171.109H168.955V189.368H183.035V171.109Z" fill="white"/>
<path opacity="0.4" d="M199.721 189.368H213.801V171.11H199.721V189.368Z" fill="white"/>
<path opacity="0.4" d="M183.035 200.323H168.955V218.582H183.035V200.323Z" fill="white"/>
<path opacity="0.4" d="M199.721 218.582H213.801V200.323H199.721V218.582Z" fill="white"/>
<path opacity="0.4" d="M183.035 229.537H168.955V247.796H183.035V229.537Z" fill="white"/>
<path opacity="0.4" d="M199.721 247.796H213.801V229.537H199.721V247.796Z" fill="white"/>
<path opacity="0.4" d="M310.272 43.8207H291.5V67.8177H310.272V43.8207Z" fill="white"/>
<path opacity="0.4" d="M310.272 78.2513H291.5V102.248H310.272V78.2513Z" fill="white"/>
<path opacity="0.4" d="M310.272 112.682H291.5V136.679H310.272V112.682Z" fill="white"/>
<path opacity="0.4" d="M310.272 147.112H291.5V171.109H310.272V147.112Z" fill="white"/>
<path opacity="0.4" d="M310.272 181.543H291.5V205.54H310.272V181.543Z" fill="white"/>
<path opacity="0.4" d="M310.272 215.974H291.5V239.971H310.272V215.974Z" fill="white"/>
<path opacity="0.4" d="M420.562 92.8582H350.686V113.203H420.562V92.8582Z" fill="white"/>
<path opacity="0.4" d="M420.823 136.679H350.947V157.024H420.823V136.679Z" fill="white"/>
<path opacity="0.4" d="M421.084 180.5H351.207V200.845H421.084V180.5Z" fill="white"/>
<path opacity="0.4" d="M421.344 224.32H351.468V244.666H421.344V224.32Z" fill="white"/>
<path opacity="0.4" d="M25.0304 50.6025H15.644V70.4262H25.0304V50.6025Z" fill="white"/>
<path opacity="0.4" d="M498 141.896H474.534V172.153H498V141.896Z" fill="white"/>
<path opacity="0.4" d="M498 185.716H474.534V215.974H498V185.716Z" fill="white"/>
<path opacity="0.4" d="M498 229.537H474.534V259.794H498V229.537Z" fill="white"/>
<path d="M25.9012 250.169C25.9012 250.169 -15.1538 274.949 60.5265 313.099C60.5265 313.099 77.2134 282.132 58.764 256.883C55.1856 251.96 49.9263 248.522 43.9829 247.219C38.0394 245.916 31.8247 246.84 26.5165 249.815L25.9012 250.169Z" fill="#FFC107"/>
<path d="M26.3757 249.648C26.3757 249.648 61.5069 276.54 60.5265 313.099" stroke="#535461" stroke-miterlimit="10"/>
<path d="M62.4351 314.507C62.4351 314.507 49.5706 270.812 64.8495 238.651C71.2583 225.155 73.3859 210 70.424 195.352C69.0094 188.396 66.9583 181.586 64.2968 175.006" stroke="#535461" stroke-width="2" stroke-miterlimit="10"/>
<path d="M73.7875 154.708C73.7875 160.06 64.0986 175.575 64.0986 175.575C64.0986 175.575 54.4046 160.045 54.4046 154.708C54.3746 153.416 54.6031 152.131 55.0767 150.928C55.5503 149.726 56.2594 148.63 57.1623 147.706C58.0652 146.781 59.1437 146.047 60.3344 145.545C61.5251 145.044 62.8041 144.785 64.096 144.785C65.388 144.785 66.6669 145.044 67.8577 145.545C69.0484 146.047 70.1269 146.781 71.0298 147.706C71.9327 148.63 72.6418 149.726 73.1153 150.928C73.5889 152.131 73.8174 153.416 73.7875 154.708Z" fill="#FFC107"/>
<path d="M89.8277 184.37C86.9179 188.867 70.3457 196.63 70.3457 196.63C70.3457 196.63 70.6429 178.324 73.5527 173.833C74.966 171.711 77.1576 170.232 79.6531 169.714C82.1487 169.197 84.7474 169.684 86.8869 171.069C89.0264 172.454 90.5345 174.627 91.0849 177.116C91.6353 179.606 91.1836 182.212 89.8277 184.37Z" fill="#FFC107"/>
<path d="M89.1237 235.062C84.3471 237.472 66.1218 235.802 66.1218 235.802C66.1218 235.802 75.6177 220.152 80.3996 217.742C82.6909 216.623 85.3308 216.452 87.7472 217.266C90.1637 218.081 92.1621 219.815 93.3096 222.093C94.457 224.371 94.6611 227.009 93.8776 229.437C93.0941 231.864 91.3861 233.885 89.1237 235.062Z" fill="#FFC107"/>
<path d="M79.9616 273.295C75.6595 276.477 57.4186 277.917 57.4186 277.917C57.4186 277.917 64.1298 260.885 68.4372 257.702C70.5072 256.233 73.0707 255.634 75.577 256.035C78.0833 256.436 80.3325 257.804 81.8415 259.846C83.3505 261.888 83.9988 264.44 83.6473 266.955C83.2958 269.469 81.9725 271.746 79.9616 273.295Z" fill="#FFC107"/>
<path d="M49.993 197.668C53.831 201.398 71.7225 205.264 71.7225 205.264C71.7225 205.264 67.3422 187.49 63.499 183.76C62.5861 182.873 61.5076 182.174 60.3248 181.704C59.1421 181.234 57.8784 181.001 56.6059 181.02C55.3333 181.038 54.0769 181.307 52.9082 181.811C51.7396 182.316 50.6817 183.045 49.7948 183.958C48.908 184.872 48.2097 185.95 47.7397 187.134C47.2697 188.317 47.0373 189.581 47.0557 190.854C47.0741 192.127 47.343 193.384 47.847 194.553C48.3509 195.722 49.0802 196.781 49.993 197.668Z" fill="#FFC107"/>
<path d="M39.8452 242.516C44.6218 244.932 62.8471 243.262 62.8471 243.262C62.8471 243.262 53.3512 227.612 48.5745 225.202C47.4352 224.598 46.1869 224.228 44.9027 224.113C43.6186 223.998 42.3244 224.14 41.0959 224.531C39.8674 224.923 38.7293 225.555 37.7481 226.392C36.767 227.229 35.9626 228.253 35.382 229.405C34.8014 230.556 34.4562 231.812 34.3668 233.099C34.2773 234.386 34.4453 235.677 34.8609 236.898C35.2765 238.119 35.9314 239.245 36.7873 240.21C37.6431 241.174 38.6827 241.959 39.8452 242.516Z" fill="#FFC107"/>
<path d="M35.9603 287.464C40.2623 290.646 58.5084 292.086 58.5084 292.086C58.5084 292.086 51.792 275.053 47.4846 271.871C45.4146 270.402 42.8511 269.803 40.3448 270.204C37.8385 270.605 35.5893 271.973 34.0803 274.015C32.5713 276.057 31.923 278.609 32.2745 281.124C32.626 283.638 33.9493 285.915 35.9603 287.464Z" fill="#FFC107"/>
<path opacity="0.25" d="M73.7875 154.708C73.7875 160.06 64.0986 175.575 64.0986 175.575C64.0986 175.575 54.4046 160.045 54.4046 154.708C54.3746 153.416 54.6031 152.131 55.0767 150.928C55.5503 149.726 56.2594 148.63 57.1623 147.706C58.0652 146.781 59.1437 146.047 60.3344 145.545C61.5251 145.044 62.8041 144.785 64.096 144.785C65.388 144.785 66.6669 145.044 67.8577 145.545C69.0484 146.047 70.1269 146.781 71.0298 147.706C71.9327 148.63 72.6418 149.726 73.1153 150.928C73.5889 152.131 73.8174 153.416 73.7875 154.708Z" fill="black"/>
<path opacity="0.25" d="M89.8277 184.37C86.9179 188.867 70.3457 196.63 70.3457 196.63C70.3457 196.63 70.6429 178.324 73.5527 173.833C74.966 171.711 77.1576 170.232 79.6531 169.714C82.1487 169.197 84.7474 169.684 86.8869 171.069C89.0264 172.454 90.5345 174.627 91.0849 177.116C91.6353 179.606 91.1836 182.212 89.8277 184.37Z" fill="black"/>
<path opacity="0.25" d="M89.1237 235.062C84.3471 237.472 66.1218 235.802 66.1218 235.802C66.1218 235.802 75.6177 220.152 80.3996 217.742C82.6909 216.623 85.3308 216.452 87.7472 217.266C90.1637 218.081 92.1621 219.815 93.3096 222.093C94.457 224.371 94.6611 227.009 93.8776 229.437C93.0941 231.864 91.3861 233.885 89.1237 235.062Z" fill="black"/>
<path opacity="0.25" d="M79.9616 273.295C75.6595 276.477 57.4186 277.917 57.4186 277.917C57.4186 277.917 64.1298 260.885 68.4372 257.702C70.5072 256.233 73.0707 255.634 75.577 256.035C78.0833 256.436 80.3325 257.804 81.8415 259.846C83.3505 261.888 83.9988 264.44 83.6473 266.955C83.2958 269.469 81.9725 271.746 79.9616 273.295Z" fill="black"/>
<path opacity="0.25" d="M49.993 197.668C53.831 201.398 71.7225 205.264 71.7225 205.264C71.7225 205.264 67.3422 187.49 63.499 183.76C62.5861 182.873 61.5076 182.174 60.3248 181.704C59.1421 181.234 57.8784 181.001 56.6059 181.02C55.3333 181.038 54.0769 181.307 52.9082 181.811C51.7396 182.316 50.6817 183.045 49.7948 183.958C48.908 184.872 48.2097 185.95 47.7397 187.134C47.2697 188.317 47.0373 189.581 47.0557 190.854C47.0741 192.127 47.343 193.384 47.847 194.553C48.3509 195.722 49.0802 196.781 49.993 197.668Z" fill="black"/>
<path opacity="0.25" d="M39.8452 242.516C44.6218 244.932 62.8471 243.262 62.8471 243.262C62.8471 243.262 53.3512 227.612 48.5745 225.202C47.4352 224.598 46.1869 224.228 44.9027 224.113C43.6186 223.998 42.3244 224.14 41.0959 224.531C39.8674 224.923 38.7293 225.555 37.7481 226.392C36.767 227.229 35.9626 228.253 35.382 229.405C34.8014 230.556 34.4562 231.812 34.3668 233.099C34.2773 234.386 34.4453 235.677 34.8609 236.898C35.2765 238.119 35.9314 239.245 36.7873 240.21C37.6431 241.174 38.6827 241.959 39.8452 242.516Z" fill="black"/>
<path opacity="0.25" d="M35.9603 287.464C40.2623 290.646 58.5084 292.086 58.5084 292.086C58.5084 292.086 51.792 275.053 47.4846 271.871C45.4146 270.402 42.8511 269.803 40.3448 270.204C37.8385 270.605 35.5893 271.973 34.0803 274.015C32.5713 276.057 31.923 278.609 32.2745 281.124C32.626 283.638 33.9493 285.915 35.9603 287.464Z" fill="black"/>
<path d="M463.99 303.224C463.99 303.224 451.125 259.528 466.404 227.367C472.813 213.871 474.946 198.717 471.984 184.068C470.564 177.114 468.514 170.304 465.857 163.723" stroke="#535461" stroke-width="2" stroke-miterlimit="10"/>
<path d="M475.363 143.424C475.363 148.777 465.669 164.291 465.669 164.291C465.669 164.291 455.975 148.761 455.975 143.424C455.975 140.852 456.996 138.385 458.814 136.567C460.632 134.748 463.098 133.726 465.669 133.726C468.24 133.726 470.706 134.748 472.524 136.567C474.342 138.385 475.363 140.852 475.363 143.424Z" fill="#FFC107"/>
<path d="M491.383 173.087C488.473 177.583 471.901 185.346 471.901 185.346C471.901 185.346 472.203 167.04 475.113 162.549C476.51 160.39 478.706 158.876 481.22 158.338C483.733 157.799 486.357 158.282 488.515 159.68C490.672 161.077 492.186 163.275 492.724 165.789C493.262 168.303 492.779 170.928 491.383 173.087Z" fill="#FFC107"/>
<path d="M490.684 223.778C485.902 226.188 467.677 224.519 467.677 224.519C467.677 224.519 477.178 208.868 481.955 206.458C484.25 205.3 486.912 205.102 489.354 205.907C491.796 206.712 493.818 208.455 494.976 210.752C496.133 213.048 496.331 215.711 495.526 218.154C494.722 220.597 492.98 222.62 490.684 223.778Z" fill="#FFC107"/>
<path d="M481.522 262.011C477.214 265.194 458.974 266.633 458.974 266.633C458.974 266.633 465.69 249.601 469.992 246.419C472.06 244.913 474.639 244.287 477.167 244.676C479.695 245.064 481.967 246.437 483.488 248.494C485.009 250.551 485.656 253.126 485.288 255.658C484.919 258.19 483.566 260.473 481.522 262.011Z" fill="#FFC107"/>
<path d="M451.548 186.368C455.391 190.098 473.277 193.964 473.277 193.964C473.277 193.964 468.897 176.191 465.059 172.461C464.151 171.552 463.071 170.834 461.882 170.346C460.694 169.859 459.42 169.613 458.136 169.623C456.851 169.632 455.582 169.897 454.4 170.401C453.219 170.906 452.15 171.64 451.255 172.561C450.36 173.483 449.656 174.573 449.186 175.769C448.716 176.964 448.487 178.242 448.515 179.526C448.542 180.811 448.824 182.077 449.345 183.252C449.866 184.426 450.614 185.486 451.548 186.368Z" fill="#FFC107"/>
<path d="M441.421 231.233C446.203 233.648 464.428 231.979 464.428 231.979C464.428 231.979 454.932 216.328 450.15 213.918C449.011 213.314 447.763 212.944 446.479 212.829C445.194 212.714 443.9 212.856 442.672 213.248C441.443 213.639 440.305 214.272 439.324 215.108C438.343 215.945 437.538 216.969 436.958 218.121C436.377 219.273 436.032 220.529 435.943 221.815C435.853 223.102 436.021 224.394 436.437 225.615C436.852 226.836 437.507 227.961 438.363 228.926C439.219 229.891 440.259 230.675 441.421 231.233Z" fill="#FFC107"/>
<path d="M437.515 276.18C441.823 279.362 460.063 280.802 460.063 280.802C460.063 280.802 453.347 263.775 449.045 260.587C446.977 259.082 444.397 258.456 441.87 258.844C439.342 259.233 437.07 260.605 435.549 262.662C434.028 264.719 433.381 267.294 433.749 269.826C434.118 272.358 435.471 274.642 437.515 276.18Z" fill="#FFC107"/>
<path d="M405.961 298.972C405.961 298.972 399.047 275.497 407.26 258.208C410.747 250.981 411.799 242.818 410.258 234.942C409.495 231.207 408.392 227.551 406.962 224.018" stroke="#535461" stroke-width="2" stroke-miterlimit="10"/>
<path d="M412.073 213.094C412.073 215.974 406.858 224.32 406.858 224.32C406.858 224.32 401.644 215.974 401.644 213.094C401.644 211.71 402.193 210.383 403.171 209.405C404.149 208.427 405.475 207.877 406.858 207.877C408.241 207.877 409.568 208.427 410.546 209.405C411.523 210.383 412.073 211.71 412.073 213.094Z" fill="#FFC107"/>
<path d="M420.682 229.036C419.118 231.452 410.211 235.625 410.211 235.625C410.211 235.625 410.373 225.786 411.937 223.371C412.717 222.278 413.888 221.529 415.206 221.278C416.525 221.027 417.889 221.294 419.015 222.024C420.142 222.754 420.943 223.89 421.254 225.196C421.564 226.502 421.36 227.877 420.682 229.036Z" fill="#FFC107"/>
<path d="M420.307 256.273C417.736 257.567 407.943 256.669 407.943 256.669C407.943 256.669 413.048 248.26 415.614 246.966C416.839 246.413 418.23 246.353 419.498 246.801C420.765 247.249 421.811 248.17 422.417 249.371C423.022 250.571 423.141 251.96 422.748 253.246C422.354 254.532 421.48 255.616 420.307 256.273Z" fill="#FFC107"/>
<path d="M415.379 276.822C413.069 278.533 403.265 279.305 403.265 279.305C403.265 279.305 406.874 270.155 409.189 268.444C409.735 267.992 410.368 267.656 411.048 267.457C411.728 267.258 412.442 267.2 413.145 267.286C413.848 267.372 414.527 267.601 415.139 267.958C415.751 268.315 416.284 268.793 416.705 269.364C417.126 269.934 417.427 270.584 417.589 271.274C417.75 271.964 417.77 272.68 417.646 273.378C417.522 274.076 417.257 274.741 416.867 275.333C416.477 275.926 415.971 276.432 415.379 276.822Z" fill="#FFC107"/>
<path d="M399.276 236.183C401.362 238.186 410.952 240.263 410.952 240.263C410.952 240.263 408.6 230.711 406.535 228.708C406.053 228.193 405.471 227.781 404.825 227.497C404.179 227.214 403.482 227.064 402.777 227.058C402.071 227.052 401.372 227.188 400.721 227.46C400.07 227.732 399.481 228.133 398.989 228.64C398.498 229.146 398.114 229.747 397.861 230.405C397.608 231.064 397.492 231.768 397.519 232.473C397.545 233.178 397.715 233.871 398.017 234.508C398.319 235.146 398.747 235.716 399.276 236.183Z" fill="#FFC107"/>
<path d="M393.821 260.285C396.392 261.578 406.185 260.686 406.185 260.686C406.185 260.686 401.08 252.277 398.509 250.978C397.284 250.424 395.893 250.365 394.625 250.813C393.358 251.261 392.312 252.182 391.707 253.382C391.101 254.583 390.983 255.971 391.376 257.257C391.769 258.543 392.643 259.628 393.816 260.285H393.821Z" fill="#FFC107"/>
<path d="M391.736 284.443C394.046 286.154 403.849 286.927 403.849 286.927C403.849 286.927 400.225 277.771 397.931 276.06C396.816 275.302 395.452 275.005 394.124 275.231C392.795 275.457 391.606 276.189 390.805 277.273C390.004 278.357 389.654 279.709 389.827 281.045C390.001 282.382 390.685 283.6 391.736 284.443Z" fill="#FFC107"/>
<path opacity="0.1" d="M138.022 24.8735H134.434C134.773 24.889 135.112 24.8355 135.43 24.7162C135.748 24.597 136.039 24.4144 136.285 24.1797C136.53 23.9449 136.726 23.6628 136.859 23.3503C136.993 23.0378 137.062 22.7015 137.062 22.3616C137.062 22.0218 136.993 21.6855 136.859 21.373C136.726 21.0605 136.53 20.7784 136.285 20.5436C136.039 20.3088 135.748 20.1263 135.43 20.0071C135.112 19.8878 134.773 19.8343 134.434 19.8498H105.373C105.033 19.8343 104.694 19.8878 104.376 20.0071C104.058 20.1263 103.767 20.3088 103.522 20.5436C103.276 20.7784 103.081 21.0605 102.947 21.373C102.814 21.6855 102.745 22.0218 102.745 22.3616C102.745 22.7015 102.814 23.0378 102.947 23.3503C103.081 23.6628 103.276 23.9449 103.522 24.1797C103.767 24.4144 104.058 24.597 104.376 24.7162C104.694 24.8355 105.033 24.889 105.373 24.8735H108.96C108.294 24.8735 107.654 25.1384 107.183 25.61C106.712 26.0815 106.447 26.7211 106.447 27.388C106.447 28.0549 106.712 28.6944 107.183 29.166C107.654 29.6375 108.294 29.9025 108.96 29.9025H103.939C103.599 29.887 103.26 29.9405 102.942 30.0597C102.624 30.179 102.333 30.3615 102.088 30.5963C101.842 30.8311 101.647 31.1132 101.513 31.4257C101.38 31.7382 101.311 32.0745 101.311 32.4143C101.311 32.7542 101.38 33.0905 101.513 33.403C101.647 33.7154 101.842 33.9976 102.088 34.2324C102.333 34.4671 102.624 34.6497 102.942 34.7689C103.26 34.8882 103.599 34.9417 103.939 34.9262H133C133.339 34.9417 133.678 34.8882 133.996 34.7689C134.314 34.6497 134.605 34.4671 134.851 34.2324C135.096 33.9976 135.292 33.7154 135.425 33.403C135.559 33.0905 135.628 32.7542 135.628 32.4143C135.628 32.0745 135.559 31.7382 135.425 31.4257C135.292 31.1132 135.096 30.8311 134.851 30.5963C134.605 30.3615 134.314 30.179 133.996 30.0597C133.678 29.9405 133.339 29.887 133 29.9025H138.022C138.688 29.9025 139.328 29.6375 139.799 29.166C140.27 28.6944 140.535 28.0549 140.535 27.388C140.535 26.7211 140.27 26.0815 139.799 25.61C139.328 25.1384 138.688 24.8735 138.022 24.8735Z" fill="#252223"/>
<path opacity="0.1" d="M266.302 87.9962H262.715C263.054 88.0117 263.393 87.9582 263.711 87.8389C264.029 87.7197 264.32 87.5371 264.565 87.3024C264.811 87.0676 265.006 86.7854 265.14 86.473C265.274 86.1605 265.342 85.8242 265.342 85.4843C265.342 85.1445 265.274 84.8082 265.14 84.4957C265.006 84.1832 264.811 83.9011 264.565 83.6663C264.32 83.4315 264.029 83.249 263.711 83.1297C263.393 83.0105 263.054 82.957 262.715 82.9725H233.653C233.314 82.957 232.975 83.0105 232.657 83.1297C232.339 83.249 232.048 83.4315 231.802 83.6663C231.557 83.9011 231.361 84.1832 231.228 84.4957C231.094 84.8082 231.025 85.1445 231.025 85.4843C231.025 85.8242 231.094 86.1605 231.228 86.473C231.361 86.7854 231.557 87.0676 231.802 87.3024C232.048 87.5371 232.339 87.7197 232.657 87.8389C232.975 87.9582 233.314 88.0117 233.653 87.9962H237.241C236.574 87.9962 235.935 88.2611 235.464 88.7327C234.992 89.2042 234.727 89.8438 234.727 90.5107C234.727 91.1775 234.992 91.8171 235.464 92.2887C235.935 92.7602 236.574 93.0251 237.241 93.0251H232.219C231.88 93.0097 231.541 93.0632 231.223 93.1824C230.905 93.3017 230.614 93.4842 230.368 93.719C230.123 93.9537 229.927 94.2359 229.794 94.5484C229.66 94.8608 229.591 95.1972 229.591 95.537C229.591 95.8769 229.66 96.2132 229.794 96.5256C229.927 96.8381 230.123 97.1203 230.368 97.355C230.614 97.5898 230.905 97.7723 231.223 97.8916C231.541 98.0108 231.88 98.0644 232.219 98.0489H261.281C261.62 98.0644 261.959 98.0108 262.277 97.8916C262.595 97.7723 262.886 97.5898 263.131 97.355C263.377 97.1203 263.572 96.8381 263.706 96.5256C263.84 96.2132 263.908 95.8769 263.908 95.537C263.908 95.1972 263.84 94.8608 263.706 94.5484C263.572 94.2359 263.377 93.9537 263.131 93.719C262.886 93.4842 262.595 93.3017 262.277 93.1824C261.959 93.0632 261.62 93.0097 261.281 93.0251H266.302C266.632 93.0251 266.959 92.9601 267.264 92.8337C267.569 92.7074 267.846 92.5222 268.08 92.2887C268.313 92.0552 268.498 91.778 268.624 91.4729C268.751 91.1678 268.816 90.8409 268.816 90.5107C268.816 90.1805 268.751 89.8535 268.624 89.5484C268.498 89.2433 268.313 88.9662 268.08 88.7327C267.846 88.4992 267.569 88.314 267.264 88.1876C266.959 88.0612 266.632 87.9962 266.302 87.9962Z" fill="#252223"/>
<path opacity="0.1" d="M484.797 5.57151H481.209C481.548 5.58698 481.887 5.53348 482.205 5.41422C482.523 5.29497 482.814 5.11244 483.06 4.87767C483.305 4.6429 483.501 4.36075 483.634 4.04828C483.768 3.7358 483.837 3.39948 483.837 3.05964C483.837 2.71979 483.768 2.38347 483.634 2.071C483.501 1.75852 483.305 1.47638 483.06 1.2416C482.814 1.00683 482.523 0.824308 482.205 0.705055C481.887 0.585802 481.548 0.532299 481.209 0.547775H452.148C451.808 0.532299 451.469 0.585802 451.151 0.705055C450.833 0.824308 450.542 1.00683 450.297 1.2416C450.051 1.47638 449.856 1.75852 449.722 2.071C449.588 2.38347 449.52 2.71979 449.52 3.05964C449.52 3.39948 449.588 3.7358 449.722 4.04828C449.856 4.36075 450.051 4.6429 450.297 4.87767C450.542 5.11244 450.833 5.29497 451.151 5.41422C451.469 5.53348 451.808 5.58698 452.148 5.57151H455.735C455.069 5.57151 454.429 5.83642 453.958 6.30798C453.487 6.77953 453.222 7.4191 453.222 8.08598C453.222 8.75286 453.487 9.39242 453.958 9.86398C454.429 10.3355 455.069 10.6005 455.735 10.6005H450.713C450.374 10.585 450.035 10.6385 449.717 10.7577C449.399 10.877 449.108 11.0595 448.863 11.2943C448.617 11.5291 448.422 11.8112 448.288 12.1237C448.154 12.4362 448.086 12.7725 448.086 13.1123C448.086 13.4522 448.154 13.7885 448.288 14.101C448.422 14.4134 448.617 14.6956 448.863 14.9304C449.108 15.1651 449.399 15.3476 449.717 15.4669C450.035 15.5862 450.374 15.6397 450.713 15.6242H479.775C480.114 15.6397 480.453 15.5862 480.771 15.4669C481.089 15.3476 481.38 15.1651 481.626 14.9304C481.871 14.6956 482.067 14.4134 482.2 14.101C482.334 13.7885 482.403 13.4522 482.403 13.1123C482.403 12.7725 482.334 12.4362 482.2 12.1237C482.067 11.8112 481.871 11.5291 481.626 11.2943C481.38 11.0595 481.089 10.877 480.771 10.7577C480.453 10.6385 480.114 10.585 479.775 10.6005H484.797C485.463 10.6005 486.102 10.3355 486.574 9.86398C487.045 9.39242 487.31 8.75286 487.31 8.08598C487.31 7.4191 487.045 6.77953 486.574 6.30798C486.102 5.83642 485.463 5.57151 484.797 5.57151Z" fill="#252223"/>
<path d="M367.894 275.883C368.102 275.883 368.301 275.8 368.447 275.654C368.594 275.507 368.676 275.308 368.676 275.1C368.676 274.893 368.594 274.694 368.447 274.547C368.301 274.4 368.102 274.318 367.894 274.318C367.687 274.318 367.488 274.4 367.341 274.547C367.194 274.694 367.112 274.893 367.112 275.1C367.112 275.308 367.194 275.507 367.341 275.654C367.488 275.8 367.687 275.883 367.894 275.883Z" fill="#535461"/>
<g opacity="0.5">
<path opacity="0.5" d="M272.221 231.107L264.644 195.425H265.421L265.301 194.82H265.52L261.599 175.518C261.599 175.518 261.797 155.355 262.751 147.556C263.45 141.864 264.555 134.613 263.747 128.51C263.859 128.341 263.961 128.167 264.055 127.988C264.389 127.339 264.591 126.629 264.649 125.901C264.941 124.195 264.712 122.441 263.992 120.867L271.871 115.942C272.049 115.942 272.231 115.979 272.393 115.989C272.393 115.916 272.32 115.802 272.263 115.65C275.99 115.846 279.683 114.846 282.803 112.796C285.923 110.746 288.306 107.752 289.607 104.252C290.3 105.294 291.158 106.217 292.146 106.985C294.268 108.576 297.611 108.931 299.379 106.954C300.023 106.165 300.458 105.227 300.646 104.226C300.75 103.777 300.823 103.318 300.886 102.864C301.887 97.5324 299.692 92.034 296.86 87.3598C293.319 81.5222 288.621 76.2377 282.65 72.9198C276.679 69.602 269.353 68.4125 262.892 70.6244C256.431 72.8363 249.923 78.8408 249.334 85.6487C249.042 89.1283 249.459 90.7402 248.739 94.1572C248.379 95.8579 249.156 99.1705 249.146 101.049C249.083 101.393 249.041 101.742 249.021 102.092C248.917 104.179 249.746 106.151 250.351 108.154C241.83 108.582 219.422 110.308 212.951 116.892C204.9 125.077 185.157 128.003 185.157 128.003L152.278 134.624L140.806 139.496L140.937 140.018L140.707 140.117C140.707 140.117 141.114 141.635 141.698 143.638C139.139 145.956 137.463 149.09 136.958 152.507C136.322 156.049 136.661 160.608 138.903 166.425C138.903 166.425 150.224 187.224 151.006 195.613L165.294 224.143C164.069 226.59 151.825 251.317 149.718 265.157C149.551 266.154 149.438 267.158 149.379 268.167C149.379 268.167 149.301 268.898 149.108 270.113C148.268 275.241 145.614 287.85 139.132 293.745L139.216 293.818L139.028 294.001L139.174 294.126C137.229 297.845 140.04 302.885 140.04 302.885L143.236 317.168L146.814 317.747L150.579 316.213L152.664 320.225C152.664 320.225 168.908 322.834 173.523 322.682C178.138 322.531 169.612 314.706 166.624 312.384C164.966 311.101 163.667 305.827 162.843 301.387C163.278 301.034 163.669 300.63 164.006 300.182C164.006 300.182 162.019 289.749 168.001 275.434C170.551 269.341 173.294 262.335 175.614 256.299C176.86 264.406 178.169 272.758 179.134 278.46C180.537 286.718 180.354 291.757 179.921 294.6C179.841 295.592 179.607 296.566 179.228 297.485C179.247 297.512 179.265 297.54 179.28 297.569C179.253 297.643 179.22 297.714 179.181 297.783C179.212 297.835 179.243 297.882 179.27 297.934C176.005 301.669 179.405 307.762 179.405 307.762L182.602 322.004L186.179 322.583L189.944 321.049L192.03 325.061C192.03 325.061 208.273 327.669 212.888 327.518C217.503 327.367 208.977 319.542 205.984 317.22C203.653 315.41 202.037 305.691 201.437 301.523C201.87 301.481 202.11 301.45 202.11 301.45L202.063 301.163H202.162L200.118 289.206C196.624 286.196 197.109 243.435 197.109 243.435C197.109 243.435 195.289 247.905 195.232 247.545C195.409 246.825 196.066 244.791 197.589 240.456C198.483 237.97 199.145 235.406 199.565 232.798C201.218 222.62 198.136 216.396 198.136 216.396C198.34 214.351 196.186 206.406 193.641 197.944L201.635 182.357C202.747 182.775 203.953 182.875 205.119 182.644L211.173 171.689C211.173 171.689 223.688 164.229 227.271 164.808C230.603 165.329 241.042 163.044 245.079 158.694C245.369 158.376 245.634 158.036 245.871 157.676C249.12 152.694 247.785 183.687 247.785 183.687L246.049 194.423L245.955 195.018L251.133 195.122L263.335 236.992C263.335 236.992 264.102 251.192 277.967 254.348C291.833 257.504 272.221 231.107 272.221 231.107ZM188.875 182.717C188.124 180.401 187.467 178.403 186.972 176.905L189.553 174.892C189.553 174.892 189.876 175.163 190.424 175.596L188.875 182.717Z" fill="url(#paint0_linear)"/>
</g>
<path d="M201.458 296.995C201.458 296.995 203.226 311.894 206.151 314.158C209.077 316.422 217.378 324.023 212.878 324.19C208.378 324.357 192.541 321.801 192.541 321.801L190.492 317.888L186.841 319.38L183.353 318.817L180.224 304.893C180.224 304.893 175.833 297.026 182.013 293.849C188.192 290.672 201.458 296.995 201.458 296.995Z" fill="#3A384D"/>
<path opacity="0.1" d="M186.601 174.845C186.601 174.845 198.882 211.409 198.418 216.104C198.418 216.104 202.918 225.181 197.954 239.292C192.989 253.404 197.432 242.49 197.432 242.49C197.432 242.49 196.963 284.167 200.363 287.104L202.355 298.758C202.355 298.758 183.207 301.033 179.984 295.143C179.984 295.143 182.477 290.777 180.036 276.363C177.596 261.949 172.892 230.189 172.892 230.189L160.147 157.744L186.601 174.845Z" fill="black"/>
<path d="M186.648 174.553C186.648 174.553 198.929 211.138 198.465 215.833C198.465 215.833 202.965 224.91 198.001 239.021C193.036 253.132 197.479 242.219 197.479 242.219C197.479 242.219 197.01 283.901 200.41 286.833L202.402 298.492C202.402 298.492 183.254 300.761 180.031 294.872C180.031 294.872 182.523 290.505 180.083 276.091C177.643 261.677 172.934 229.902 172.934 229.902L160.194 157.452L186.648 174.553Z" fill="#BEC7DE"/>
<path opacity="0.1" d="M163.354 159.351L175.843 230.372C175.843 230.372 180.537 262.147 182.993 276.561C185.449 290.975 182.941 295.341 182.941 295.341C183.879 297.058 186.158 298.075 188.922 298.664C185.042 298.21 181.543 297.151 180.323 294.919C180.323 294.919 182.821 290.552 180.38 276.138C177.94 261.725 173.231 229.949 173.231 229.949L160.486 157.499L163.354 159.351Z" fill="black"/>
<path d="M163.161 292.295C163.161 292.295 164.924 307.194 167.855 309.458C170.785 311.722 179.082 319.323 174.582 319.49C170.081 319.656 154.244 317.1 154.244 317.1L152.195 313.188L148.545 314.685L145.056 314.116L141.927 300.193C141.927 300.193 137.537 292.326 143.711 289.149C149.885 285.972 163.161 292.295 163.161 292.295Z" fill="#3A384D"/>
<path opacity="0.1" d="M186.601 174.845C186.601 174.845 198.882 211.409 198.418 216.104C198.418 216.104 202.918 225.181 197.954 239.292C192.989 253.404 197.432 242.49 197.432 242.49C197.432 242.49 196.963 284.167 200.363 287.104L202.355 298.758C202.355 298.758 183.207 301.033 179.984 295.143C179.984 295.143 182.477 290.777 180.036 276.363C177.596 261.949 172.892 230.189 172.892 230.189L160.147 157.744L186.601 174.845Z" fill="black"/>
<path opacity="0.1" d="M147.684 142.605C147.684 142.605 134.017 147.853 141.369 166.936C141.369 166.936 152.409 187.208 153.175 195.388L167.151 223.298C167.151 223.298 152.247 252.804 151.585 266.117C151.585 266.117 149.593 283.99 141.552 291.335C141.552 291.335 158.849 306.062 165.289 297.558C165.289 297.558 163.354 287.407 169.19 273.436C175.025 259.466 181.945 240.623 181.945 240.623C181.945 240.623 198.678 229.308 187.53 206.03L175.014 154.202L174.811 142.537L165.211 139.199L147.684 142.605Z" fill="black"/>
<path opacity="0.1" d="M147.059 142.798C147.059 142.798 133.391 148.046 140.744 167.129C140.744 167.129 151.778 187.407 152.544 195.586L166.52 223.496C166.52 223.496 151.616 252.997 150.964 266.315C150.964 266.315 148.972 284.183 140.926 291.533C140.926 291.533 158.223 306.26 164.669 297.757C164.669 297.757 162.729 287.6 168.564 273.634C174.399 259.669 181.319 240.8 181.319 240.8C181.319 240.8 198.058 229.485 186.909 206.208L174.394 154.379L174.19 142.715L164.596 139.376L147.059 142.798Z" fill="black"/>
<path d="M147.106 142.511C147.106 142.511 133.438 147.765 140.791 166.842C140.791 166.842 148.899 181.736 151.694 191.142C152.915 195.182 154.485 199.108 156.388 202.874L166.567 223.22C166.567 223.22 151.663 252.726 151.006 266.039C151.006 266.039 149.014 283.911 140.968 291.256C140.968 291.256 158.265 305.983 164.71 297.48C164.71 297.48 162.77 287.328 168.606 273.358C174.441 259.387 181.361 240.524 181.361 240.524C181.361 240.524 198.1 229.208 186.951 205.931L174.436 154.103L174.232 142.438L164.637 139.099L147.106 142.511Z" fill="#BEC7DE"/>
<path opacity="0.1" d="M147.106 142.511L164.653 139.084L166.942 139.882L150.594 143.069C150.594 143.069 136.927 148.318 144.279 167.4C144.279 167.4 152.383 182.294 155.183 191.7C156.403 195.74 157.974 199.666 159.876 203.433L170.061 223.778C170.061 223.778 155.136 253.273 154.495 266.587C154.495 266.587 152.498 284.459 144.457 291.804C144.457 291.804 151.908 298.148 158.849 300.104C151.194 299.948 140.968 291.236 140.968 291.236C149.014 283.891 151.006 266.018 151.006 266.018C151.663 252.705 166.567 223.199 166.567 223.199L156.388 202.853C154.485 199.087 152.915 195.161 151.694 191.121C148.899 181.731 140.791 166.821 140.791 166.821C133.438 147.765 147.106 142.511 147.106 142.511Z" fill="black"/>
<path d="M203.419 179.649L192.536 200.855C192.536 200.855 195.727 229.109 189.631 229.913C183.535 230.716 185.981 198.904 185.981 198.904L191.847 171.814L203.419 179.649Z" fill="#BE7C5E"/>
<path d="M262.902 193.442L270.683 230.189C270.683 230.189 289.779 255.944 276.262 252.866C262.746 249.789 262 235.928 262 235.928L248.964 191.168L262.902 193.442Z" fill="#BE7C5E"/>
<path d="M270.656 117.742L251.414 129.845L244.547 111.435C244.547 111.435 260.472 112.52 262.329 106.557C264.185 100.595 270.656 117.742 270.656 117.742Z" fill="#BE7C5E"/>
<path d="M260.775 125.395L259.544 120.121L240.578 121.232L232.939 151.912L247.17 152.423L255.138 139.992L259.481 127.868L260.775 125.395Z" fill="#BE7C5E"/>
<path opacity="0.1" d="M254.215 119.86L255.779 111.018C255.779 111.018 220.679 111.456 212.831 119.432C204.983 127.409 185.741 130.268 185.741 130.268L153.692 136.715L142.485 141.468C142.485 141.468 145.645 153.31 147.001 154.129C148.357 154.948 163.49 142.475 163.49 142.475L169.226 143.998L150.547 163.644L185.021 197.553L185.658 178.867L190.074 175.413C190.074 175.413 200.571 184.282 205.254 182.936L211.157 172.257C211.157 172.257 223.36 164.985 226.848 165.548C230.097 166.07 240.276 163.832 244.208 159.591C244.484 159.294 244.735 158.974 244.959 158.636C248.129 153.779 246.825 183.99 246.825 183.99L245.042 195.034L264.06 195.425L260.243 176.613C260.243 176.613 260.436 156.962 261.364 149.356C262.292 141.75 263.971 131.29 260.566 124.769L253.87 131.144L242.221 149.851L246.643 133.565L254.215 119.86Z" fill="black"/>
<path d="M254.314 119.276L252.65 110.204C252.65 110.204 220.794 110.872 212.946 118.848C205.098 126.824 185.83 129.678 185.83 129.678L153.78 136.131L142.621 140.889C142.621 140.889 145.781 152.731 147.137 153.545C148.493 154.358 163.631 141.896 163.631 141.896L169.367 143.419L150.688 163.065L185.162 196.974L185.798 178.282L190.231 174.824C190.231 174.824 200.728 183.692 205.411 182.352L211.314 171.673C211.314 171.673 223.448 164.401 226.958 164.98C230.206 165.501 240.385 163.258 244.317 159.017C244.593 158.72 244.844 158.401 245.068 158.062C248.239 153.206 246.935 183.421 246.935 183.421L245.152 194.465L264.17 194.856L260.352 176.044C260.352 176.044 260.545 156.388 261.473 148.787C262.402 141.186 264.081 130.716 260.676 124.2L253.98 130.549L242.315 149.241L246.737 132.954L254.314 119.276Z" fill="#7FAFF2"/>
<path opacity="0.1" d="M214.135 130.826C214.135 130.826 195.148 146.846 193.161 155.475L214.135 130.826Z" fill="black"/>
<path opacity="0.1" d="M234.863 144.635C234.863 144.635 220.262 155.694 217.655 162.726L234.863 144.635Z" fill="black"/>
<path opacity="0.1" d="M192.223 161.286C192.223 161.286 190.851 167.922 190.58 171.459L192.223 161.286Z" fill="black"/>
<path opacity="0.1" d="M185.282 176.566C185.282 176.566 163.412 156.925 160.351 157.327L185.282 176.566Z" fill="black"/>
<path opacity="0.1" d="M262.558 106.891C264.336 101.184 270.344 116.657 270.849 117.987C270.278 117.955 269.709 117.892 269.144 117.799C266.864 117.434 264.681 116.608 262.73 115.371C260.779 114.135 259.101 112.513 257.797 110.606C260.139 109.87 262.005 108.707 262.558 106.891Z" fill="black"/>
<path d="M271.637 117.685C281.066 117.685 288.71 110.038 288.71 100.605C288.71 91.1722 281.066 83.5254 271.637 83.5254C262.208 83.5254 254.564 91.1722 254.564 100.605C254.564 110.038 262.208 117.685 271.637 117.685Z" fill="#BE7C5E"/>
<path opacity="0.1" d="M285.503 103.067C286.843 105.274 288.063 107.669 290.133 109.213C292.203 110.757 295.463 111.106 297.183 109.181C297.809 108.411 298.232 107.497 298.414 106.521C299.676 101.142 297.47 95.5656 294.607 90.8236C291.155 85.1321 286.572 79.9832 280.757 76.7384C274.943 73.4936 267.794 72.3407 261.494 74.5004C255.195 76.6601 250.022 82.4299 249.501 89.0656C249.214 92.4565 250.069 95.9152 249.365 99.2487C249 100.986 248.213 102.64 248.124 104.413C247.957 107.705 250.21 110.767 250.006 114.059C249.881 116.088 248.844 117.93 248.207 119.865C246.643 124.529 247.488 129.605 247.164 134.509C246.841 139.412 244.698 144.911 240.005 146.361C245.193 148.97 252.348 146.226 254.46 140.811C255.101 139.157 255.336 137.321 256.311 135.839C257.959 133.335 261.385 132.344 262.767 129.683C264.149 127.023 262.949 123.783 261.437 121.201C259.925 118.618 258.037 116.021 258.006 113.031C258.017 111.572 258.472 110.15 259.31 108.955C260.148 107.761 261.33 106.85 262.699 106.343C264.123 105.848 265.661 105.822 267.157 105.655C270.87 105.178 274.416 103.824 277.503 101.706C281.513 99.0817 282.588 98.2679 285.503 103.067Z" fill="black"/>
<path d="M285.612 102.321C286.952 104.533 288.172 106.923 290.243 108.472C292.313 110.021 295.572 110.366 297.293 108.441C297.918 107.67 298.341 106.755 298.524 105.78C299.786 100.402 297.58 94.8249 294.717 90.0829C291.265 84.3862 286.681 79.2425 280.867 75.9977C275.052 72.7528 267.903 71.6052 261.604 73.7597C255.304 75.9142 248.963 81.7726 248.405 88.4083C248.119 91.7992 248.531 93.3694 247.827 96.6977C247.462 98.4349 248.312 101.914 248.223 103.678C248.056 106.97 250.309 110.032 250.105 113.324C249.98 115.353 248.943 117.194 248.306 119.125C246.742 123.794 247.587 128.869 247.263 133.773C246.94 138.677 244.797 144.17 240.104 145.62C245.292 148.229 252.447 145.485 254.559 140.07C255.2 138.421 255.435 136.585 256.41 135.103C258.058 132.599 261.484 131.608 262.866 128.948C264.248 126.287 263.048 123.042 261.541 120.46C260.034 117.878 258.136 115.285 258.105 112.291C258.117 110.832 258.572 109.411 259.411 108.218C260.249 107.024 261.43 106.114 262.798 105.608C264.222 105.112 265.76 105.086 267.256 104.919C270.969 104.44 274.514 103.086 277.602 100.97C281.633 98.3358 282.708 97.5272 285.612 102.321Z" fill="#723647"/>
<path d="M250.181 112.208L257.424 113.379C257.987 113.47 258.517 113.089 258.608 112.527C258.699 111.965 258.316 111.436 257.753 111.345L250.51 110.174C249.947 110.083 249.417 110.465 249.326 111.027C249.236 111.588 249.618 112.117 250.181 112.208Z" fill="#252A62"/>
<path d="M235.254 256.377C235.374 264.547 242.263 270.984 250.429 270.984H251.566C252.57 270.981 253.535 271.37 254.256 272.069C254.803 272.582 255.183 273.247 255.346 273.979C255.424 274.273 255.462 274.577 255.461 274.881V289.306C255.456 292.079 256.248 294.796 257.745 297.131C259.922 300.438 261.103 304.303 261.145 308.263C261.145 309.188 261.329 310.103 261.686 310.956C262.044 311.808 262.567 312.581 263.226 313.229C263.886 313.877 264.667 314.387 265.526 314.729C266.384 315.071 267.302 315.239 268.226 315.222C272.044 315.154 275.037 311.868 275.037 308.044V304.439L276.935 304.658V308.274C276.935 309.197 277.12 310.111 277.477 310.962C277.835 311.814 278.358 312.585 279.017 313.232C279.676 313.879 280.456 314.388 281.314 314.73C282.171 315.072 283.088 315.239 284.011 315.222C287.834 315.154 290.827 311.868 290.827 308.044V306.218C292.72 307.011 303.457 307.011 306.434 306.218L307.243 306.156V308.242C307.24 309.169 307.422 310.086 307.778 310.941C308.134 311.796 308.657 312.571 309.317 313.222C309.976 313.872 310.759 314.383 311.619 314.727C312.479 315.071 313.398 315.239 314.324 315.222C318.141 315.154 321.134 311.868 321.134 308.044V305.05L321.765 304.992V308.279C321.767 309.202 321.953 310.116 322.311 310.966C322.669 311.817 323.193 312.588 323.852 313.234C324.512 313.881 325.293 314.389 326.15 314.73C327.007 315.072 327.924 315.239 328.847 315.222C330.53 315.165 332.138 314.509 333.38 313.372C334.623 312.235 335.419 310.692 335.626 309.02C335.665 308.696 335.686 308.37 335.688 308.044V292.957C335.694 287.775 333.959 282.741 330.761 278.663C330.207 277.942 329.896 277.062 329.875 276.153C329.853 275.243 330.121 274.35 330.641 273.603C334.176 268.423 339.407 259.68 339.234 253.482C339.271 251.801 338.681 250.167 337.581 248.897C337.514 248.818 337.441 248.745 337.373 248.672C332.283 243.341 323.325 247.535 324.102 254.865C324.366 257.319 324.189 259.801 323.58 262.194C323.227 263.544 322.751 264.859 322.156 266.122C321.561 267.389 320.583 268.437 319.36 269.118C318.137 269.799 316.731 270.077 315.341 269.915C314.396 269.799 313.445 269.742 312.494 269.743H283.292C281.578 269.743 279.906 269.207 278.513 268.208C277.119 267.21 276.073 265.8 275.522 264.176C275.225 263.326 275.075 262.432 275.079 261.532V238.786C275.079 238.194 274.96 237.607 274.729 237.062C274.499 236.516 274.161 236.022 273.736 235.609C273.311 235.197 272.807 234.874 272.255 234.66C271.703 234.446 271.113 234.345 270.521 234.363C269.943 234.384 269.375 234.52 268.851 234.765C268.327 235.01 267.858 235.357 267.47 235.787C266.68 236.658 266.241 237.792 266.24 238.969C266.24 239.277 266.18 239.582 266.063 239.866C265.945 240.151 265.773 240.409 265.555 240.627C265.338 240.845 265.079 241.017 264.795 241.134C264.511 241.252 264.206 241.312 263.898 241.311H250.095C248.128 241.311 246.18 241.702 244.365 242.462C242.55 243.222 240.904 244.335 239.523 245.737C238.142 247.139 237.053 248.802 236.32 250.628C235.588 252.455 235.225 254.409 235.254 256.377Z" fill="#F3AD55"/>
<path d="M322.005 310.005C322.397 311.52 323.286 312.859 324.532 313.805C325.777 314.752 327.304 315.251 328.868 315.222C330.551 315.165 332.159 314.509 333.401 313.372C334.644 312.235 335.44 310.692 335.647 309.019C331.392 307.887 325.562 307.105 322.005 310.005Z" fill="#FBDCA3"/>
<path d="M307.456 310.005C307.849 311.521 308.74 312.859 309.986 313.806C311.232 314.752 312.76 315.251 314.324 315.222C316.002 315.159 317.603 314.5 318.839 313.364C320.076 312.227 320.867 310.687 321.072 309.019C316.869 307.887 311.054 307.105 307.456 310.005Z" fill="#FBDCA3"/>
<path d="M277.159 310.005C277.55 311.52 278.44 312.859 279.686 313.805C280.931 314.752 282.458 315.251 284.022 315.222C285.705 315.165 287.313 314.509 288.555 313.372C289.798 312.235 290.594 310.692 290.801 309.019C286.546 307.887 280.726 307.105 277.159 310.005Z" fill="#FBDCA3"/>
<path d="M261.359 310.005C261.75 311.521 262.641 312.86 263.887 313.807C265.133 314.753 266.662 315.252 268.226 315.222C269.905 315.159 271.505 314.5 272.742 313.364C273.978 312.227 274.77 310.687 274.974 309.019C270.771 307.887 264.941 307.105 261.359 310.005Z" fill="#FBDCA3"/>
<path d="M323.538 262.194C328.445 260.222 334.432 256.612 339.182 253.482C339.218 251.801 338.629 250.167 337.529 248.897C337.462 248.818 337.388 248.745 337.321 248.672C332.231 243.341 323.272 247.535 324.049 254.864C324.317 257.319 324.144 259.801 323.538 262.194Z" fill="#FBDCA3"/>
<path d="M317.599 269.784C317.599 269.784 304.088 286.801 281.983 269.743L317.599 269.784Z" fill="#FBDCA3"/>
<path d="M275.037 238.155C275.037 238.155 266.829 248.896 275.037 262.152V238.155Z" fill="#FBDCA3"/>
<path d="M255.461 274.798C255.461 274.798 262.694 283.781 255.555 290.928L255.461 274.798Z" fill="#FBDCA3"/>
<path opacity="0.1" d="M254.83 272.899C255.351 273.42 255.185 273.89 255.351 274.631L278.817 268.48C277.555 267.505 275.986 266.352 275.47 264.828C272.664 266.993 267.1 270.656 254.83 272.899Z" fill="black"/>
<path d="M254.256 272.09C254.803 272.602 255.183 273.268 255.346 273.999L278.233 268.031C276.956 267.046 275.998 265.705 275.48 264.176C272.664 266.362 266.526 269.836 254.256 272.09Z" fill="#383F4D"/>
<path opacity="0.1" d="M274.62 265.439C274.62 265.439 267.46 270.828 255.461 272.497L274.62 265.439Z" fill="black"/>
<path d="M274.62 264.808C274.62 264.808 267.46 270.197 255.461 271.866L274.62 264.808Z" fill="#F3AD55"/>
<path opacity="0.1" d="M256.723 265.319C256.723 265.319 244.729 269.111 241.569 257.108L256.723 265.319Z" fill="black"/>
<path d="M256.723 264.688C256.723 264.688 244.729 268.48 241.569 256.476L256.723 264.688Z" fill="#FBDCA3"/>
<path d="M235.254 257.108C235.951 257.108 236.516 256.117 236.516 254.896C236.516 253.674 235.951 252.684 235.254 252.684C234.557 252.684 233.992 253.674 233.992 254.896C233.992 256.117 234.557 257.108 235.254 257.108Z" fill="#383F4D"/>
<path opacity="0.1" d="M330.922 300.381L328.398 280.166C328.398 280.166 335.975 292.164 330.922 300.381Z" fill="black"/>
<path d="M327.767 280.166C327.767 280.166 335.344 292.164 330.291 300.381L327.767 280.166Z" fill="#FBDCA3"/>
<defs>
<linearGradient id="paint0_linear" x1="132.21" y1="181.948" x2="290.124" y2="207.458" gradientUnits="userSpaceOnUse">
<stop stop-color="#808080" stop-opacity="0.25"/>
<stop offset="0.54" stop-color="#808080" stop-opacity="0.12"/>
<stop offset="1" stop-color="#808080" stop-opacity="0.1"/>
</linearGradient>
</defs>
</svg>
