<svg width="499" height="351" viewBox="0 0 499 351" fill="none" xmlns="http://www.w3.org/2000/svg">
<g clip-path="url(#clip0)">
<path d="M196.222 220.279C196.375 219.235 196.298 218.17 195.995 217.159C195.692 216.148 195.171 215.216 194.469 214.428C193.766 213.64 192.899 213.016 191.928 212.598C190.958 212.181 189.908 211.982 188.852 212.014L142.571 165.274L133.428 178.04L181.796 219.97C181.968 221.738 182.783 223.382 184.087 224.59C185.391 225.798 187.093 226.487 188.872 226.525C190.65 226.563 192.38 225.948 193.735 224.797C195.089 223.646 195.974 222.038 196.222 220.279Z" fill="#FFB8B8"/>
<path d="M174.299 193.29L162.486 205.076C161.92 205.637 161.156 205.953 160.359 205.956C159.562 205.96 158.795 205.649 158.225 205.093L125.946 173.395C124.83 172.299 123.943 170.993 123.336 169.552C122.728 168.111 122.413 166.564 122.407 165.001C122.402 163.438 122.707 161.889 123.305 160.444C123.903 158.999 124.782 157.687 125.89 156.584C126.999 155.48 128.316 154.607 129.764 154.015C131.213 153.423 132.764 153.124 134.329 153.135C135.894 153.146 137.442 153.466 138.882 154.078C140.322 154.69 141.627 155.581 142.72 156.699L174.326 189.038C174.88 189.609 175.187 190.374 175.182 191.169C175.177 191.965 174.86 192.726 174.299 193.29Z" fill="#FFC107"/>
<path d="M132.871 135.438C141.995 135.438 149.391 128.049 149.391 118.936C149.391 109.822 141.995 102.434 132.871 102.434C123.746 102.434 116.35 109.822 116.35 118.936C116.35 128.049 123.746 135.438 132.871 135.438Z" fill="#FFB8B8"/>
<path d="M77.0469 316.685L81.2301 323.784L110.633 311.046L104.459 300.568L77.0469 316.685Z" fill="#FFB8B8"/>
<path d="M78.3004 313.511L86.5385 327.49L86.5388 327.491C87.2282 328.661 87.6802 329.955 87.8689 331.299C88.0576 332.644 87.9794 334.012 87.6386 335.326C87.2978 336.641 86.7013 337.875 85.8829 338.959C85.0646 340.043 84.0405 340.955 82.8692 341.644L82.5793 341.814L69.0912 318.925L78.3004 313.511Z" fill="#2F2E41"/>
<path d="M125.516 342.258H133.762L137.685 310.487L125.514 310.487L125.516 342.258Z" fill="#FFB8B8"/>
<path d="M123.412 339.569L139.653 339.569H139.653C141.013 339.569 142.358 339.836 143.614 340.355C144.87 340.875 146.011 341.636 146.972 342.596C147.933 343.556 148.695 344.696 149.215 345.95C149.735 347.204 150.003 348.549 150.003 349.906V350.242L123.413 350.243L123.412 339.569Z" fill="#2F2E41"/>
<path d="M92.3621 323.009C91.8875 323.01 91.4195 322.898 90.996 322.684C90.5725 322.47 90.2054 322.16 89.9244 321.778L81.9712 310.988C81.7286 310.659 81.5553 310.284 81.4618 309.886C81.3683 309.489 81.3565 309.076 81.4272 308.673C81.4979 308.271 81.6496 307.887 81.8731 307.544C82.0966 307.202 82.3873 306.908 82.7276 306.681L118.118 283.071L96.764 226.986L142.429 230.75L143.967 278.946C144.112 283.335 143.059 287.681 140.921 291.519C138.782 295.356 135.64 298.54 131.829 300.731L93.8744 322.603C93.4149 322.869 92.8932 323.009 92.3621 323.009Z" fill="#2F2E41"/>
<path d="M125.765 335.808C124.982 335.807 124.23 335.502 123.666 334.959C123.103 334.415 122.773 333.674 122.745 332.893L121.072 285.941L141.795 284.85L140.145 332.139C140.121 332.888 139.818 333.602 139.296 334.14C138.773 334.678 138.069 335.003 137.32 335.051L125.971 335.802C125.902 335.806 125.833 335.808 125.765 335.808Z" fill="#2F2E41"/>
<path d="M147.714 240.074C142.442 240.074 124.026 234.15 117.633 232.039C116.676 232.803 111.422 236.728 105.289 236.011C101.505 235.567 98.1732 233.427 95.387 229.651C89.2343 221.31 96.8336 185.541 104.292 157.003C105.787 151.235 109.463 146.27 114.547 143.153C119.631 140.036 125.727 139.008 131.554 140.287C135.776 141.218 139.656 143.307 142.756 146.319C145.855 149.331 148.053 153.147 149.101 157.338C150.506 163.048 149.298 169.764 148.415 174.668C148.001 176.974 147.673 178.795 147.785 179.69C148.218 183.149 150.623 237.399 149.077 239.716C148.912 239.962 148.436 240.074 147.714 240.074Z" fill="#FFC107"/>
<path d="M128.426 240.17C129.274 239.54 129.972 238.732 130.473 237.803C130.974 236.874 131.265 235.846 131.325 234.793C131.386 233.739 131.214 232.686 130.823 231.706C130.431 230.726 129.829 229.843 129.06 229.121L129.386 163.382L113.885 165.96L118.438 229.768C117.309 231.141 116.722 232.879 116.79 234.654C116.858 236.43 117.576 238.118 118.807 239.4C120.038 240.683 121.697 241.469 123.47 241.611C125.243 241.753 127.006 241.24 128.426 240.17Z" fill="#FFB8B8"/>
<path d="M132.011 205.6H115.315C114.518 205.597 113.753 205.282 113.187 204.721C112.621 204.161 112.298 203.4 112.288 202.604L111.878 157.392C111.864 155.828 112.16 154.278 112.75 152.83C113.339 151.381 114.211 150.064 115.313 148.954C116.415 147.844 117.727 146.964 119.172 146.364C120.618 145.763 122.168 145.455 123.733 145.457C125.298 145.459 126.847 145.771 128.291 146.375C129.735 146.979 131.045 147.862 132.144 148.975C133.244 150.087 134.112 151.407 134.698 152.856C135.284 154.306 135.576 155.857 135.558 157.421L135.038 202.611C135.026 203.406 134.702 204.164 134.136 204.723C133.57 205.282 132.807 205.597 132.011 205.6Z" fill="#FFC107"/>
<path d="M128.664 135.369C121.1 135.383 113.964 129.411 112.653 121.969C112.184 119.046 112.395 116.054 113.271 113.226C114.222 110.006 115.854 107.027 118.055 104.491C120.256 101.954 122.976 99.918 126.032 98.5202C129.088 97.1224 132.408 96.3952 135.769 96.3877C139.129 96.3801 142.453 97.0923 145.515 98.4763C147.538 99.3909 149.531 100.705 150.458 102.721C151.385 104.737 150.805 107.555 148.778 108.462C147.453 109.055 145.791 108.764 144.616 109.615C142.928 110.838 143.363 113.439 144.116 115.381C144.87 117.322 145.722 119.672 144.459 121.328C143.282 122.872 140.928 122.824 139.075 122.243C137.221 121.662 135.392 120.689 133.459 120.887C130.641 121.176 128.615 123.976 128.24 126.781C127.865 129.587 128.748 132.391 129.619 135.084L128.664 135.369Z" fill="#2F2E41"/>
<path d="M335.394 152.211C335.394 107.084 372.018 -7.62939e-06 417.197 -7.62939e-06C462.376 -7.62939e-06 499 107.084 499 152.211C499 173.881 490.382 194.664 475.041 209.988C459.7 225.311 438.893 233.92 417.197 233.92C395.502 233.92 374.695 225.311 359.354 209.988C344.013 194.664 335.394 173.881 335.394 152.211Z" fill="#FFC107"/>
<path d="M417.197 351C417.019 351 416.848 350.929 416.721 350.803C416.595 350.677 416.524 350.506 416.524 350.328V68.6212C416.524 68.443 416.595 68.2721 416.721 68.1461C416.848 68.0201 417.019 67.9493 417.197 67.9493C417.375 67.9493 417.547 68.0201 417.673 68.1461C417.799 68.2721 417.87 68.443 417.87 68.6212V350.328C417.87 350.506 417.799 350.677 417.673 350.803C417.547 350.929 417.375 351 417.197 351Z" fill="#3F3D56"/>
<path d="M417.197 123.007C417.109 123.007 417.021 122.99 416.939 122.956C416.858 122.922 416.784 122.872 416.721 122.81L384.344 90.4696C384.219 90.3434 384.149 90.1729 384.15 89.9954C384.15 89.818 384.221 89.648 384.347 89.5225C384.473 89.397 384.643 89.3263 384.82 89.3257C384.998 89.3252 385.169 89.3949 385.295 89.5196L417.673 121.86C417.767 121.954 417.831 122.073 417.857 122.204C417.883 122.334 417.869 122.469 417.818 122.592C417.767 122.715 417.681 122.82 417.571 122.893C417.46 122.967 417.33 123.007 417.197 123.007V123.007Z" fill="#3F3D56"/>
<path d="M417.197 178.994C417.064 178.994 416.934 178.955 416.823 178.881C416.713 178.807 416.627 178.702 416.576 178.579C416.525 178.457 416.511 178.322 416.537 178.191C416.563 178.061 416.627 177.941 416.721 177.847L470.943 123.687C471.07 123.563 471.24 123.493 471.418 123.494C471.596 123.494 471.766 123.565 471.891 123.69C472.017 123.816 472.088 123.986 472.088 124.163C472.089 124.341 472.019 124.511 471.895 124.637L417.673 178.797C417.61 178.86 417.536 178.909 417.455 178.943C417.373 178.977 417.285 178.994 417.197 178.994Z" fill="#3F3D56"/>
<path d="M190.815 219.896C201.547 217.473 213.705 225.858 214.082 237.115C214.188 240.281 213.259 243.606 210.82 245.76C208.806 247.539 205.809 248.435 203.206 247.566C198.197 245.894 197.929 238.921 200.617 235.197C204.255 230.155 211.463 229.294 217.183 229.894C224.176 230.627 230.822 233.69 236.4 237.887C247.565 246.291 254.674 259.171 260.429 271.615C266.319 284.381 270.603 297.827 273.181 311.645C273.506 313.381 273.803 315.121 274.073 316.866C274.15 317.122 274.324 317.337 274.558 317.465C274.792 317.594 275.067 317.625 275.324 317.552C275.577 317.472 275.79 317.297 275.918 317.064C276.046 316.832 276.079 316.559 276.011 316.302C273.656 301.223 269.305 286.523 263.073 272.589C257.048 259.103 249.452 245.114 237.368 236.114C231.344 231.627 224.231 228.505 216.703 227.837C210.365 227.275 202.861 228.614 198.92 234.12C195.81 238.463 196.126 245.682 200.937 248.707C203.582 250.37 206.943 250.175 209.689 248.882C211.146 248.164 212.43 247.137 213.45 245.873C214.47 244.61 215.204 243.14 215.599 241.565C217.307 235.313 214.713 228.551 210.266 224.082C206.092 219.876 200.42 217.494 194.491 217.456C193.064 217.471 191.642 217.641 190.25 217.961C188.983 218.247 189.55 220.182 190.815 219.896V219.896Z" fill="#CCCCCC"/>
<path d="M242.57 343.698L235.901 332.324L244.125 327.513L250.794 338.886V338.887C251.433 339.976 251.612 341.274 251.293 342.496C250.973 343.717 250.181 344.761 249.091 345.399C248 346.037 246.701 346.217 245.478 345.898C244.255 345.578 243.209 344.787 242.57 343.698Z" fill="#FFC107"/>
<path d="M220.519 320.057C223.758 320.057 226.384 317.435 226.384 314.199C226.384 310.964 223.758 308.341 220.519 308.341C217.28 308.341 214.655 310.964 214.655 314.199C214.655 317.435 217.28 320.057 220.519 320.057Z" fill="#FFC107"/>
<path d="M268.374 343.698L261.705 332.324L269.928 327.513L276.598 338.886C277.235 339.976 277.413 341.273 277.093 342.493C276.774 343.714 275.982 344.757 274.892 345.395C273.802 346.033 272.504 346.212 271.281 345.894C270.059 345.576 269.014 344.786 268.374 343.698Z" fill="#FFC107"/>
<path d="M221.634 326.001C221.637 322.7 222.951 319.536 225.288 317.203C227.624 314.869 230.792 313.556 234.096 313.552H273.548C274.944 313.554 276.283 314.109 277.271 315.095C278.258 316.082 278.814 317.419 278.815 318.814V323.298C278.811 327.315 277.211 331.166 274.367 334.007C271.524 336.847 267.668 338.445 263.647 338.449H234.096C230.792 338.445 227.624 337.133 225.288 334.799C222.951 332.465 221.637 329.301 221.634 326.001Z" fill="#3F3D56"/>
<path d="M230.731 345.165V331.984H240.262V345.165C240.262 346.427 239.76 347.638 238.866 348.53C237.972 349.423 236.76 349.924 235.497 349.924C234.233 349.924 233.021 349.423 232.127 348.53C231.234 347.638 230.731 346.427 230.731 345.165Z" fill="#3F3D56"/>
<path d="M258.386 345.165V331.984H267.916V345.165C267.917 345.79 267.794 346.41 267.555 346.988C267.316 347.566 266.965 348.091 266.522 348.534C266.08 348.976 265.554 349.328 264.976 349.567C264.397 349.807 263.777 349.93 263.151 349.93C262.525 349.93 261.905 349.807 261.326 349.567C260.748 349.328 260.222 348.976 259.779 348.534C259.337 348.091 258.986 347.566 258.747 346.988C258.508 346.41 258.385 345.79 258.386 345.165Z" fill="#3F3D56"/>
<path d="M297.16 293.016C298.136 291.808 299.551 291.036 301.095 290.87C302.639 290.703 304.187 291.155 305.398 292.126C306.609 293.098 307.385 294.51 307.555 296.052C307.725 297.594 307.276 299.141 306.306 300.353L296.665 312.342L287.52 305.006L297.16 293.016Z" fill="#FFC107"/>
<path d="M273.939 316.635L281.662 307.03C283.54 304.699 286.266 303.209 289.243 302.884C292.22 302.559 295.204 303.427 297.541 305.298L299.954 307.234C302.736 309.47 304.515 312.717 304.903 316.263C305.29 319.808 304.254 323.362 302.021 326.145L295.658 334.059C294.955 334.931 293.935 335.489 292.82 335.611C291.705 335.732 290.588 335.407 289.713 334.707L274.588 322.573C273.714 321.871 273.155 320.851 273.034 319.738C272.912 318.625 273.237 317.508 273.939 316.635Z" fill="#3F3D56"/>
<path d="M298.308 291.589C298.64 291.177 299.049 290.834 299.514 290.579C299.978 290.325 300.488 290.165 301.014 290.107C301.541 290.05 302.073 290.097 302.581 290.245C303.09 290.393 303.564 290.64 303.977 290.971C304.389 291.302 304.733 291.711 304.987 292.175C305.242 292.639 305.403 293.148 305.46 293.674C305.517 294.2 305.471 294.731 305.322 295.239C305.174 295.747 304.927 296.22 304.595 296.633L293.808 310.049L287.52 305.006L298.308 291.589Z" fill="#3F3D56"/>
<path d="M282.854 314.015L299.429 327.313C300.638 328.287 301.41 329.7 301.576 331.242C301.743 332.784 301.29 334.33 300.318 335.539C299.345 336.748 297.933 337.523 296.389 337.693C294.846 337.864 293.298 337.416 292.084 336.448L275.509 323.15L282.854 314.015Z" fill="#3F3D56"/>
<path d="M301.039 335.982C301.895 334.918 302.109 333.67 301.517 333.196C300.925 332.721 299.751 333.199 298.896 334.263C298.04 335.327 297.826 336.575 298.418 337.049C299.01 337.524 300.183 337.046 301.039 335.982Z" fill="#FFC107"/>
<path d="M465.471 350.875H0.672646C0.494249 350.875 0.323159 350.805 0.197013 350.679C0.0708674 350.553 0 350.382 0 350.204C0 350.025 0.0708674 349.855 0.197013 349.729C0.323159 349.603 0.494249 349.532 0.672646 349.532H465.471C465.65 349.532 465.821 349.603 465.947 349.729C466.073 349.855 466.144 350.025 466.144 350.204C466.144 350.382 466.073 350.553 465.947 350.679C465.821 350.805 465.65 350.875 465.471 350.875Z" fill="#CCCCCC"/>
</g>
<defs>
<clipPath id="clip0">
<rect width="499" height="351" fill="white"/>
</clipPath>
</defs>
</svg>
